{
  "asset": { "version": "2.0" },
  "scene": 0,
  "scenes": [{ "nodes": [0,1,2,3,4,5,6,7,8] }],
  "nodes": [{"mesh":0},{"mesh":1},{"mesh":2},{"mesh":3},{"mesh":4},{"mesh":5},{"mesh":6},{"mesh":7},{"mesh":8}],
  "meshes": [{"primitives":[{"attributes":{"POSITION":0,"TEXCOORD_0":1},"indices":2,"material":0}]},{"primitives":[{"attributes":{"POSITION":3,"TEXCOORD_0":4},"indices":5,"material":0}]},{"primitives":[{"attributes":{"POSITION":6,"TEXCOORD_0":7},"indices":8,"material":0}]},{"primitives":[{"attributes":{"POSITION":9,"TEXCOORD_0":10},"indices":11,"material":0}]},{"primitives":[{"attributes":{"POSITION":12,"TEXCOORD_0":13},"indices":14,"material":0}]},{"primitives":[{"attributes":{"POSITION":15,"TEXCOORD_0":16},"indices":17,"material":0}]},{"primitives":[{"attributes":{"POSITION":18,"TEXCOORD_0":19},"indices":20,"material":0}]},{"primitives":[{"attributes":{"POSITION":21,"TEXCOORD_0":22},"indices":23,"material":0}]},{"primitives":[{"attributes":{"POSITION":24,"TEXCOORD_0":25},"indices":26,"material":0}]}],
  "materials": [{
    "pbrMetallicRoughness": {
      "baseColorTexture": { "index": 0 },
      "metallicFactor": 0.0,
      "roughnessFactor": 1.0
    }
  }],
  "textures": [{ "source": 0 }],
  "images": [{ "uri": "plamTree.png" }],
  "accessors": [{"bufferView":0,"byteOffset":0,"componentType":5126,"count":12,"type":"VEC3","min":[0.25,-1,-1],"max":[1.25,0,-0]},{"bufferView":1,"byteOffset":0,"componentType":5126,"count":12,"type":"VEC2"},{"bufferView":2,"byteOffset":0,"componentType":5123,"count":12,"type":"SCALAR"},{"bufferView":3,"byteOffset":0,"componentType":5126,"count":12,"type":"VEC3","min":[0.25,-1,-2.25],"max":[1.25,0,-1]},{"bufferView":4,"byteOffset":0,"componentType":5126,"count":12,"type":"VEC2"},{"bufferView":5,"byteOffset":0,"componentType":5123,"count":12,"type":"SCALAR"},{"bufferView":6,"byteOffset":0,"componentType":5126,"count":12,"type":"VEC3","min":[-0.5,-0.75,-1.5],"max":[0.75,0.25,-0.5]},{"bufferView":7,"byteOffset":0,"componentType":5126,"count":12,"type":"VEC2"},{"bufferView":8,"byteOffset":0,"componentType":5123,"count":12,"type":"SCALAR"},{"bufferView":9,"byteOffset":0,"componentType":5126,"count":12,"type":"VEC3","min":[0.75,-0.75,-1.5],"max":[1.75,0,-0.5]},{"bufferView":10,"byteOffset":0,"componentType":5126,"count":12,"type":"VEC2"},{"bufferView":11,"byteOffset":0,"componentType":5123,"count":12,"type":"SCALAR"},{"bufferView":12,"byteOffset":0,"componentType":5126,"count":12,"type":"VEC3","min":[1.75,-0.75,-1.5],"max":[2.25,0,-0.5]},{"bufferView":13,"byteOffset":0,"componentType":5126,"count":12,"type":"VEC2"},{"bufferView":14,"byteOffset":0,"componentType":5123,"count":12,"type":"SCALAR"},{"bufferView":15,"byteOffset":0,"componentType":5126,"count":12,"type":"VEC3","min":[0.25,-0.75,-0],"max":[1.25,0,0.5]},{"bufferView":16,"byteOffset":0,"componentType":5126,"count":12,"type":"VEC2"},{"bufferView":17,"byteOffset":0,"componentType":5123,"count":12,"type":"SCALAR"},{"bufferView":18,"byteOffset":0,"componentType":5126,"count":12,"type":"VEC3","min":[0.25,-1,-2.75],"max":[1.25,0,-2.25]},{"bufferView":19,"byteOffset":0,"componentType":5126,"count":12,"type":"VEC2"},{"bufferView":20,"byteOffset":0,"componentType":5123,"count":12,"type":"SCALAR"},{"bufferView":21,"byteOffset":0,"componentType":5126,"count":12,"type":"VEC3","min":[-1,-0.75,-1.5],"max":[-0.5,0.25,-0.5]},{"bufferView":22,"byteOffset":0,"componentType":5126,"count":12,"type":"VEC2"},{"bufferView":23,"byteOffset":0,"componentType":5123,"count":12,"type":"SCALAR"},{"bufferView":24,"byteOffset":0,"componentType":5126,"count":18,"type":"VEC3","min":[0.5,-2.75,-1.25],"max":[1,-0.75,-0.75]},{"bufferView":25,"byteOffset":0,"componentType":5126,"count":18,"type":"VEC2"},{"bufferView":26,"byteOffset":0,"componentType":5123,"count":18,"type":"SCALAR"}],
  "bufferViews": [{"buffer":0,"byteOffset":0,"byteLength":144,"target":34962},{"buffer":0,"byteOffset":144,"byteLength":96,"target":34962},{"buffer":0,"byteOffset":240,"byteLength":24,"target":34963},{"buffer":0,"byteOffset":264,"byteLength":144,"target":34962},{"buffer":0,"byteOffset":408,"byteLength":96,"target":34962},{"buffer":0,"byteOffset":504,"byteLength":24,"target":34963},{"buffer":0,"byteOffset":528,"byteLength":144,"target":34962},{"buffer":0,"byteOffset":672,"byteLength":96,"target":34962},{"buffer":0,"byteOffset":768,"byteLength":24,"target":34963},{"buffer":0,"byteOffset":792,"byteLength":144,"target":34962},{"buffer":0,"byteOffset":936,"byteLength":96,"target":34962},{"buffer":0,"byteOffset":1032,"byteLength":24,"target":34963},{"buffer":0,"byteOffset":1056,"byteLength":144,"target":34962},{"buffer":0,"byteOffset":1200,"byteLength":96,"target":34962},{"buffer":0,"byteOffset":1296,"byteLength":24,"target":34963},{"buffer":0,"byteOffset":1320,"byteLength":144,"target":34962},{"buffer":0,"byteOffset":1464,"byteLength":96,"target":34962},{"buffer":0,"byteOffset":1560,"byteLength":24,"target":34963},{"buffer":0,"byteOffset":1584,"byteLength":144,"target":34962},{"buffer":0,"byteOffset":1728,"byteLength":96,"target":34962},{"buffer":0,"byteOffset":1824,"byteLength":24,"target":34963},{"buffer":0,"byteOffset":1848,"byteLength":144,"target":34962},{"buffer":0,"byteOffset":1992,"byteLength":96,"target":34962},{"buffer":0,"byteOffset":2088,"byteLength":24,"target":34963},{"buffer":0,"byteOffset":2112,"byteLength":216,"target":34962},{"buffer":0,"byteOffset":2328,"byteLength":144,"target":34962},{"buffer":0,"byteOffset":2472,"byteLength":36,"target":34963}],
  "buffers": [{ "uri": "plamTree.bin", "byteLength": 2508 }]
}