{
  "asset": { "version": "2.0" },
  "scene": 0,
  "scenes": [{ "nodes": [0,1,2,3,4,5,6,7,8,9] }],
  "nodes": [{"mesh":0},{"mesh":1},{"mesh":2},{"mesh":3},{"mesh":4},{"mesh":5},{"mesh":6},{"mesh":7},{"mesh":8},{"mesh":9}],
  "meshes": [{"primitives":[{"attributes":{"POSITION":0,"TEXCOORD_0":1},"indices":2,"material":0}]},{"primitives":[{"attributes":{"POSITION":3,"TEXCOORD_0":4},"indices":5,"material":0}]},{"primitives":[{"attributes":{"POSITION":6,"TEXCOORD_0":7},"indices":8,"material":0}]},{"primitives":[{"attributes":{"POSITION":9,"TEXCOORD_0":10},"indices":11,"material":0}]},{"primitives":[{"attributes":{"POSITION":12,"TEXCOORD_0":13},"indices":14,"material":0}]},{"primitives":[{"attributes":{"POSITION":15,"TEXCOORD_0":16},"indices":17,"material":0}]},{"primitives":[{"attributes":{"POSITION":18,"TEXCOORD_0":19},"indices":20,"material":0}]},{"primitives":[{"attributes":{"POSITION":21,"TEXCOORD_0":22},"indices":23,"material":0}]},{"primitives":[{"attributes":{"POSITION":24,"TEXCOORD_0":25},"indices":26,"material":0}]},{"primitives":[{"attributes":{"POSITION":27,"TEXCOORD_0":28},"indices":29,"material":0}]}],
  "materials": [{
    "pbrMetallicRoughness": {
      "baseColorTexture": { "index": 0 },
      "metallicFactor": 0.0,
      "roughnessFactor": 1.0
    }
  }],
  "textures": [{ "source": 0 }],
  "images": [{ "uri": "workbench.png" }],
  "accessors": [{"bufferView":0,"byteOffset":0,"componentType":5126,"count":36,"type":"VEC3","min":[3,-2.25,-0],"max":[4,5,1]},{"bufferView":1,"byteOffset":0,"componentType":5126,"count":36,"type":"VEC2"},{"bufferView":2,"byteOffset":0,"componentType":5123,"count":36,"type":"SCALAR"},{"bufferView":3,"byteOffset":0,"componentType":5126,"count":60,"type":"VEC3","min":[-5.75,-2.5,-5.25],"max":[5.5,-1.75,5.25]},{"bufferView":4,"byteOffset":0,"componentType":5126,"count":60,"type":"VEC2"},{"bufferView":5,"byteOffset":0,"componentType":5123,"count":60,"type":"SCALAR"},{"bufferView":6,"byteOffset":0,"componentType":5126,"count":36,"type":"VEC3","min":[-5.25,-1.75,-4.25],"max":[5,4.25,4.25]},{"bufferView":7,"byteOffset":0,"componentType":5126,"count":36,"type":"VEC2"},{"bufferView":8,"byteOffset":0,"componentType":5123,"count":36,"type":"SCALAR"},{"bufferView":9,"byteOffset":0,"componentType":5126,"count":60,"type":"VEC3","min":[-5.25,4.25,-4.75],"max":[5,5,4.75]},{"bufferView":10,"byteOffset":0,"componentType":5126,"count":60,"type":"VEC2"},{"bufferView":11,"byteOffset":0,"componentType":5123,"count":60,"type":"SCALAR"},{"bufferView":12,"byteOffset":0,"componentType":5126,"count":36,"type":"VEC3","min":[-4.25,-2.25,-0],"max":[-3.25,5,1]},{"bufferView":13,"byteOffset":0,"componentType":5126,"count":36,"type":"VEC2"},{"bufferView":14,"byteOffset":0,"componentType":5123,"count":36,"type":"SCALAR"},{"bufferView":15,"byteOffset":0,"componentType":5126,"count":48,"type":"VEC3","min":[-10,-2.9998,-6.5],"max":[-7,-0.0001,-6.25]},{"bufferView":16,"byteOffset":0,"componentType":5126,"count":48,"type":"VEC2"},{"bufferView":17,"byteOffset":0,"componentType":5123,"count":48,"type":"SCALAR"},{"bufferView":18,"byteOffset":0,"componentType":5126,"count":60,"type":"VEC3","min":[-5,-1.5,-1.75],"max":[-3.5,0.25,-0.25]},{"bufferView":19,"byteOffset":0,"componentType":5126,"count":60,"type":"VEC2"},{"bufferView":20,"byteOffset":0,"componentType":5123,"count":60,"type":"SCALAR"},{"bufferView":21,"byteOffset":0,"componentType":5126,"count":60,"type":"VEC3","min":[-3.5,-1.5,-1.75],"max":[-2,0.25,-0.25]},{"bufferView":22,"byteOffset":0,"componentType":5126,"count":60,"type":"VEC2"},{"bufferView":23,"byteOffset":0,"componentType":5123,"count":60,"type":"SCALAR"},{"bufferView":24,"byteOffset":0,"componentType":5126,"count":60,"type":"VEC3","min":[-4.25,-1.5,-2.75],"max":[-2.75,0.25,-1.25]},{"bufferView":25,"byteOffset":0,"componentType":5126,"count":60,"type":"VEC2"},{"bufferView":26,"byteOffset":0,"componentType":5123,"count":60,"type":"SCALAR"},{"bufferView":27,"byteOffset":0,"componentType":5126,"count":36,"type":"VEC3","min":[-2.5,-1.5,2],"max":[2.5,1.5,3]},{"bufferView":28,"byteOffset":0,"componentType":5126,"count":36,"type":"VEC2"},{"bufferView":29,"byteOffset":0,"componentType":5123,"count":36,"type":"SCALAR"}],
  "bufferViews": [{"buffer":0,"byteOffset":0,"byteLength":432,"target":34962},{"buffer":0,"byteOffset":432,"byteLength":288,"target":34962},{"buffer":0,"byteOffset":720,"byteLength":72,"target":34963},{"buffer":0,"byteOffset":792,"byteLength":720,"target":34962},{"buffer":0,"byteOffset":1512,"byteLength":480,"target":34962},{"buffer":0,"byteOffset":1992,"byteLength":120,"target":34963},{"buffer":0,"byteOffset":2112,"byteLength":432,"target":34962},{"buffer":0,"byteOffset":2544,"byteLength":288,"target":34962},{"buffer":0,"byteOffset":2832,"byteLength":72,"target":34963},{"buffer":0,"byteOffset":2904,"byteLength":720,"target":34962},{"buffer":0,"byteOffset":3624,"byteLength":480,"target":34962},{"buffer":0,"byteOffset":4104,"byteLength":120,"target":34963},{"buffer":0,"byteOffset":4224,"byteLength":432,"target":34962},{"buffer":0,"byteOffset":4656,"byteLength":288,"target":34962},{"buffer":0,"byteOffset":4944,"byteLength":72,"target":34963},{"buffer":0,"byteOffset":5016,"byteLength":576,"target":34962},{"buffer":0,"byteOffset":5592,"byteLength":384,"target":34962},{"buffer":0,"byteOffset":5976,"byteLength":96,"target":34963},{"buffer":0,"byteOffset":6072,"byteLength":720,"target":34962},{"buffer":0,"byteOffset":6792,"byteLength":480,"target":34962},{"buffer":0,"byteOffset":7272,"byteLength":120,"target":34963},{"buffer":0,"byteOffset":7392,"byteLength":720,"target":34962},{"buffer":0,"byteOffset":8112,"byteLength":480,"target":34962},{"buffer":0,"byteOffset":8592,"byteLength":120,"target":34963},{"buffer":0,"byteOffset":8712,"byteLength":720,"target":34962},{"buffer":0,"byteOffset":9432,"byteLength":480,"target":34962},{"buffer":0,"byteOffset":9912,"byteLength":120,"target":34963},{"buffer":0,"byteOffset":10032,"byteLength":432,"target":34962},{"buffer":0,"byteOffset":10464,"byteLength":288,"target":34962},{"buffer":0,"byteOffset":10752,"byteLength":72,"target":34963}],
  "buffers": [{ "uri": "workbench.bin", "byteLength": 10824 }]
}