{
  "asset": { "version": "2.0" },
  "scene": 0,
  "scenes": [{ "nodes": [0,1,2,3,4,5,6,7,8,9,10,11,12] }],
  "nodes": [{"mesh":0},{"mesh":1},{"mesh":2},{"mesh":3},{"mesh":4},{"mesh":5},{"mesh":6},{"mesh":7},{"mesh":8},{"mesh":9},{"mesh":10},{"mesh":11},{"mesh":12}],
  "meshes": [{"primitives":[{"attributes":{"POSITION":0,"TEXCOORD_0":1},"indices":2,"material":0}]},{"primitives":[{"attributes":{"POSITION":3,"TEXCOORD_0":4},"indices":5,"material":0}]},{"primitives":[{"attributes":{"POSITION":6,"TEXCOORD_0":7},"indices":8,"material":0}]},{"primitives":[{"attributes":{"POSITION":9,"TEXCOORD_0":10},"indices":11,"material":0}]},{"primitives":[{"attributes":{"POSITION":12,"TEXCOORD_0":13},"indices":14,"material":0}]},{"primitives":[{"attributes":{"POSITION":15,"TEXCOORD_0":16},"indices":17,"material":0}]},{"primitives":[{"attributes":{"POSITION":18,"TEXCOORD_0":19},"indices":20,"material":0}]},{"primitives":[{"attributes":{"POSITION":21,"TEXCOORD_0":22},"indices":23,"material":0}]},{"primitives":[{"attributes":{"POSITION":24,"TEXCOORD_0":25},"indices":26,"material":0}]},{"primitives":[{"attributes":{"POSITION":27,"TEXCOORD_0":28},"indices":29,"material":0}]},{"primitives":[{"attributes":{"POSITION":30,"TEXCOORD_0":31},"indices":32,"material":0}]},{"primitives":[{"attributes":{"POSITION":33,"TEXCOORD_0":34},"indices":35,"material":0}]},{"primitives":[{"attributes":{"POSITION":36,"TEXCOORD_0":37},"indices":38,"material":0}]}],
  "materials": [{
    "pbrMetallicRoughness": {
      "baseColorTexture": { "index": 0 },
      "metallicFactor": 0.0,
      "roughnessFactor": 1.0
    }
  }],
  "textures": [{ "source": 0 }],
  "images": [{ "uri": "unnamed_5.png" }],
  "accessors": [{"bufferView":0,"byteOffset":0,"componentType":5126,"count":60,"type":"VEC3","min":[-1.25,-1.25,-1],"max":[1.5,-0.25,1.5]},{"bufferView":1,"byteOffset":0,"componentType":5126,"count":60,"type":"VEC2"},{"bufferView":2,"byteOffset":0,"componentType":5123,"count":60,"type":"SCALAR"},{"bufferView":3,"byteOffset":0,"componentType":5126,"count":60,"type":"VEC3","min":[-1.25,-0.25,-1],"max":[1.5,1,1.5]},{"bufferView":4,"byteOffset":0,"componentType":5126,"count":60,"type":"VEC2"},{"bufferView":5,"byteOffset":0,"componentType":5123,"count":60,"type":"SCALAR"},{"bufferView":6,"byteOffset":0,"componentType":5126,"count":60,"type":"VEC3","min":[-1,1,-0.5],"max":[1,2,1]},{"bufferView":7,"byteOffset":0,"componentType":5126,"count":60,"type":"VEC2"},{"bufferView":8,"byteOffset":0,"componentType":5123,"count":60,"type":"SCALAR"},{"bufferView":9,"byteOffset":0,"componentType":5126,"count":60,"type":"VEC3","min":[0.75,-1.75,-1.25],"max":[1.75,-0.75,-0.5]},{"bufferView":10,"byteOffset":0,"componentType":5126,"count":60,"type":"VEC2"},{"bufferView":11,"byteOffset":0,"componentType":5123,"count":60,"type":"SCALAR"},{"bufferView":12,"byteOffset":0,"componentType":5126,"count":60,"type":"VEC3","min":[1,-1.5,1.5],"max":[1.5,-1,1.75]},{"bufferView":13,"byteOffset":0,"componentType":5126,"count":60,"type":"VEC2"},{"bufferView":14,"byteOffset":0,"componentType":5123,"count":60,"type":"SCALAR"},{"bufferView":15,"byteOffset":0,"componentType":5126,"count":60,"type":"VEC3","min":[0.75,-1.75,1],"max":[1.75,-0.75,1.75]},{"bufferView":16,"byteOffset":0,"componentType":5126,"count":60,"type":"VEC2"},{"bufferView":17,"byteOffset":0,"componentType":5123,"count":60,"type":"SCALAR"},{"bufferView":18,"byteOffset":0,"componentType":5126,"count":60,"type":"VEC3","min":[-1.5,-1.75,1],"max":[-0.5,-0.75,1.75]},{"bufferView":19,"byteOffset":0,"componentType":5126,"count":60,"type":"VEC2"},{"bufferView":20,"byteOffset":0,"componentType":5123,"count":60,"type":"SCALAR"},{"bufferView":21,"byteOffset":0,"componentType":5126,"count":60,"type":"VEC3","min":[-1.5,-1.75,-1.25],"max":[-0.5,-0.75,-0.5]},{"bufferView":22,"byteOffset":0,"componentType":5126,"count":60,"type":"VEC2"},{"bufferView":23,"byteOffset":0,"componentType":5123,"count":60,"type":"SCALAR"},{"bufferView":24,"byteOffset":0,"componentType":5126,"count":60,"type":"VEC3","min":[-1.25,-1.5,-1.25],"max":[-0.75,-1,-1]},{"bufferView":25,"byteOffset":0,"componentType":5126,"count":60,"type":"VEC2"},{"bufferView":26,"byteOffset":0,"componentType":5123,"count":60,"type":"SCALAR"},{"bufferView":27,"byteOffset":0,"componentType":5126,"count":60,"type":"VEC3","min":[1,-1.5,-1.25],"max":[1.5,-1,-1]},{"bufferView":28,"byteOffset":0,"componentType":5126,"count":60,"type":"VEC2"},{"bufferView":29,"byteOffset":0,"componentType":5123,"count":60,"type":"SCALAR"},{"bufferView":30,"byteOffset":0,"componentType":5126,"count":60,"type":"VEC3","min":[-1.25,-1.5,1.5],"max":[-0.75,-1,1.75]},{"bufferView":31,"byteOffset":0,"componentType":5126,"count":60,"type":"VEC2"},{"bufferView":32,"byteOffset":0,"componentType":5123,"count":60,"type":"SCALAR"},{"bufferView":33,"byteOffset":0,"componentType":5126,"count":36,"type":"VEC3","min":[0.25,2,0.25],"max":[0.75,2.5,0.25]},{"bufferView":34,"byteOffset":0,"componentType":5126,"count":36,"type":"VEC2"},{"bufferView":35,"byteOffset":0,"componentType":5123,"count":36,"type":"SCALAR"},{"bufferView":36,"byteOffset":0,"componentType":5126,"count":48,"type":"VEC3","min":[-0.4999,2.5,-0],"max":[0.2498,3,0.5]},{"bufferView":37,"byteOffset":0,"componentType":5126,"count":48,"type":"VEC2"},{"bufferView":38,"byteOffset":0,"componentType":5123,"count":48,"type":"SCALAR"}],
  "bufferViews": [{"buffer":0,"byteOffset":0,"byteLength":720,"target":34962},{"buffer":0,"byteOffset":720,"byteLength":480,"target":34962},{"buffer":0,"byteOffset":1200,"byteLength":120,"target":34963},{"buffer":0,"byteOffset":1320,"byteLength":720,"target":34962},{"buffer":0,"byteOffset":2040,"byteLength":480,"target":34962},{"buffer":0,"byteOffset":2520,"byteLength":120,"target":34963},{"buffer":0,"byteOffset":2640,"byteLength":720,"target":34962},{"buffer":0,"byteOffset":3360,"byteLength":480,"target":34962},{"buffer":0,"byteOffset":3840,"byteLength":120,"target":34963},{"buffer":0,"byteOffset":3960,"byteLength":720,"target":34962},{"buffer":0,"byteOffset":4680,"byteLength":480,"target":34962},{"buffer":0,"byteOffset":5160,"byteLength":120,"target":34963},{"buffer":0,"byteOffset":5280,"byteLength":720,"target":34962},{"buffer":0,"byteOffset":6000,"byteLength":480,"target":34962},{"buffer":0,"byteOffset":6480,"byteLength":120,"target":34963},{"buffer":0,"byteOffset":6600,"byteLength":720,"target":34962},{"buffer":0,"byteOffset":7320,"byteLength":480,"target":34962},{"buffer":0,"byteOffset":7800,"byteLength":120,"target":34963},{"buffer":0,"byteOffset":7920,"byteLength":720,"target":34962},{"buffer":0,"byteOffset":8640,"byteLength":480,"target":34962},{"buffer":0,"byteOffset":9120,"byteLength":120,"target":34963},{"buffer":0,"byteOffset":9240,"byteLength":720,"target":34962},{"buffer":0,"byteOffset":9960,"byteLength":480,"target":34962},{"buffer":0,"byteOffset":10440,"byteLength":120,"target":34963},{"buffer":0,"byteOffset":10560,"byteLength":720,"target":34962},{"buffer":0,"byteOffset":11280,"byteLength":480,"target":34962},{"buffer":0,"byteOffset":11760,"byteLength":120,"target":34963},{"buffer":0,"byteOffset":11880,"byteLength":720,"target":34962},{"buffer":0,"byteOffset":12600,"byteLength":480,"target":34962},{"buffer":0,"byteOffset":13080,"byteLength":120,"target":34963},{"buffer":0,"byteOffset":13200,"byteLength":720,"target":34962},{"buffer":0,"byteOffset":13920,"byteLength":480,"target":34962},{"buffer":0,"byteOffset":14400,"byteLength":120,"target":34963},{"buffer":0,"byteOffset":14520,"byteLength":432,"target":34962},{"buffer":0,"byteOffset":14952,"byteLength":288,"target":34962},{"buffer":0,"byteOffset":15240,"byteLength":72,"target":34963},{"buffer":0,"byteOffset":15312,"byteLength":576,"target":34962},{"buffer":0,"byteOffset":15888,"byteLength":384,"target":34962},{"buffer":0,"byteOffset":16272,"byteLength":96,"target":34963}],
  "buffers": [{ "uri": "unnamed_5.bin", "byteLength": 16368 }]
}