{
  "asset": { "version": "2.0" },
  "scene": 0,
  "scenes": [{ "nodes": [0,1,2,3,4,5,6] }],
  "nodes": [{"mesh":0},{"mesh":1},{"mesh":2},{"mesh":3},{"mesh":4},{"mesh":5},{"mesh":6}],
  "meshes": [{"primitives":[{"attributes":{"POSITION":0,"TEXCOORD_0":1},"indices":2,"material":0}]},{"primitives":[{"attributes":{"POSITION":3,"TEXCOORD_0":4},"indices":5,"material":0}]},{"primitives":[{"attributes":{"POSITION":6,"TEXCOORD_0":7},"indices":8,"material":0}]},{"primitives":[{"attributes":{"POSITION":9,"TEXCOORD_0":10},"indices":11,"material":0}]},{"primitives":[{"attributes":{"POSITION":12,"TEXCOORD_0":13},"indices":14,"material":0}]},{"primitives":[{"attributes":{"POSITION":15,"TEXCOORD_0":16},"indices":17,"material":0}]},{"primitives":[{"attributes":{"POSITION":18,"TEXCOORD_0":19},"indices":20,"material":0}]}],
  "materials": [{
    "pbrMetallicRoughness": {
      "baseColorTexture": { "index": 0 },
      "metallicFactor": 0.0,
      "roughnessFactor": 1.0
    }
  }],
  "textures": [{ "source": 0 }],
  "images": [{ "uri": "Dead-Tree_Special.png" }],
  "accessors": [{"bufferView":0,"byteOffset":0,"componentType":5126,"count":12,"type":"VEC3","min":[0,1,-0.25],"max":[1,1.25,0.25]},{"bufferView":1,"byteOffset":0,"componentType":5126,"count":12,"type":"VEC2"},{"bufferView":2,"byteOffset":0,"componentType":5123,"count":12,"type":"SCALAR"},{"bufferView":3,"byteOffset":0,"componentType":5126,"count":18,"type":"VEC3","min":[0,-1.5,-0.75],"max":[0.5,0.5,-0.25]},{"bufferView":4,"byteOffset":0,"componentType":5126,"count":18,"type":"VEC2"},{"bufferView":5,"byteOffset":0,"componentType":5123,"count":18,"type":"SCALAR"},{"bufferView":6,"byteOffset":0,"componentType":5126,"count":36,"type":"VEC3","min":[-0.595916,-0.891457,-2.27719],"max":[1.79444,1.76633,1.36237]},{"bufferView":7,"byteOffset":0,"componentType":5126,"count":36,"type":"VEC2"},{"bufferView":8,"byteOffset":0,"componentType":5123,"count":36,"type":"SCALAR"},{"bufferView":9,"byteOffset":0,"componentType":5126,"count":60,"type":"VEC3","min":[0.720994,-1.05801,0.0089746],"max":[2.77901,0.558013,1.99103]},{"bufferView":10,"byteOffset":0,"componentType":5126,"count":60,"type":"VEC2"},{"bufferView":11,"byteOffset":0,"componentType":5123,"count":60,"type":"SCALAR"},{"bufferView":12,"byteOffset":0,"componentType":5126,"count":60,"type":"VEC3","min":[0.258975,-0.808013,-3.02901],"max":[2.24103,0.808013,-0.970994]},{"bufferView":13,"byteOffset":0,"componentType":5126,"count":60,"type":"VEC2"},{"bufferView":14,"byteOffset":0,"componentType":5123,"count":60,"type":"SCALAR"},{"bufferView":15,"byteOffset":0,"componentType":5126,"count":60,"type":"VEC3","min":[0.306282,0.184391,-2.4703],"max":[1.69372,1.31561,-1.0297]},{"bufferView":16,"byteOffset":0,"componentType":5126,"count":60,"type":"VEC2"},{"bufferView":17,"byteOffset":0,"componentType":5123,"count":60,"type":"SCALAR"},{"bufferView":18,"byteOffset":0,"componentType":5126,"count":60,"type":"VEC3","min":[0.787661,-0.130042,0.105894],"max":[2.21234,1.13004,1.39411]},{"bufferView":19,"byteOffset":0,"componentType":5126,"count":60,"type":"VEC2"},{"bufferView":20,"byteOffset":0,"componentType":5123,"count":60,"type":"SCALAR"}],
  "bufferViews": [{"buffer":0,"byteOffset":0,"byteLength":144,"target":34962},{"buffer":0,"byteOffset":144,"byteLength":96,"target":34962},{"buffer":0,"byteOffset":240,"byteLength":24,"target":34963},{"buffer":0,"byteOffset":264,"byteLength":216,"target":34962},{"buffer":0,"byteOffset":480,"byteLength":144,"target":34962},{"buffer":0,"byteOffset":624,"byteLength":36,"target":34963},{"buffer":0,"byteOffset":660,"byteLength":432,"target":34962},{"buffer":0,"byteOffset":1092,"byteLength":288,"target":34962},{"buffer":0,"byteOffset":1380,"byteLength":72,"target":34963},{"buffer":0,"byteOffset":1452,"byteLength":720,"target":34962},{"buffer":0,"byteOffset":2172,"byteLength":480,"target":34962},{"buffer":0,"byteOffset":2652,"byteLength":120,"target":34963},{"buffer":0,"byteOffset":2772,"byteLength":720,"target":34962},{"buffer":0,"byteOffset":3492,"byteLength":480,"target":34962},{"buffer":0,"byteOffset":3972,"byteLength":120,"target":34963},{"buffer":0,"byteOffset":4092,"byteLength":720,"target":34962},{"buffer":0,"byteOffset":4812,"byteLength":480,"target":34962},{"buffer":0,"byteOffset":5292,"byteLength":120,"target":34963},{"buffer":0,"byteOffset":5412,"byteLength":720,"target":34962},{"buffer":0,"byteOffset":6132,"byteLength":480,"target":34962},{"buffer":0,"byteOffset":6612,"byteLength":120,"target":34963}],
  "buffers": [{ "uri": "Dead-Tree_Special.bin", "byteLength": 6732 }]
}