{
  "asset": { "version": "2.0" },
  "scene": 0,
  "scenes": [{ "nodes": [0,1,2,3,4,5] }],
  "nodes": [{"mesh":0},{"mesh":1},{"mesh":2},{"mesh":3},{"mesh":4},{"mesh":5}],
  "meshes": [{"primitives":[{"attributes":{"POSITION":0,"TEXCOORD_0":1},"indices":2,"material":0}]},{"primitives":[{"attributes":{"POSITION":3,"TEXCOORD_0":4},"indices":5,"material":0}]},{"primitives":[{"attributes":{"POSITION":6,"TEXCOORD_0":7},"indices":8,"material":0}]},{"primitives":[{"attributes":{"POSITION":9,"TEXCOORD_0":10},"indices":11,"material":0}]},{"primitives":[{"attributes":{"POSITION":12,"TEXCOORD_0":13},"indices":14,"material":0}]},{"primitives":[{"attributes":{"POSITION":15,"TEXCOORD_0":16},"indices":17,"material":0}]}],
  "materials": [{
    "pbrMetallicRoughness": {
      "baseColorTexture": { "index": 0 },
      "metallicFactor": 0.0,
      "roughnessFactor": 1.0
    }
  }],
  "textures": [{ "source": 0 }],
  "images": [{ "uri": "unnamed_10.png" }],
  "accessors": [{"bufferView":0,"byteOffset":0,"componentType":5126,"count":60,"type":"VEC3","min":[-1.4,-0.55,-2],"max":[1.4,1.9,1.5]},{"bufferView":1,"byteOffset":0,"componentType":5126,"count":60,"type":"VEC2"},{"bufferView":2,"byteOffset":0,"componentType":5123,"count":60,"type":"SCALAR"},{"bufferView":3,"byteOffset":0,"componentType":5126,"count":60,"type":"VEC3","min":[-1.69,-1.0175,-5.3625],"max":[1.69,1.94,-1.1375]},{"bufferView":4,"byteOffset":0,"componentType":5126,"count":60,"type":"VEC2"},{"bufferView":5,"byteOffset":0,"componentType":5123,"count":60,"type":"SCALAR"},{"bufferView":6,"byteOffset":0,"componentType":5126,"count":60,"type":"VEC3","min":[-0.98,-1.23,-2.475],"max":[0.98,-0.015,-0.025]},{"bufferView":7,"byteOffset":0,"componentType":5126,"count":60,"type":"VEC2"},{"bufferView":8,"byteOffset":0,"componentType":5123,"count":60,"type":"SCALAR"},{"bufferView":9,"byteOffset":0,"componentType":5126,"count":60,"type":"VEC3","min":[-1.183,0.02125,-2.63725],"max":[1.183,2.97875,-0.567]},{"bufferView":10,"byteOffset":0,"componentType":5126,"count":60,"type":"VEC2"},{"bufferView":11,"byteOffset":0,"componentType":5123,"count":60,"type":"SCALAR"},{"bufferView":12,"byteOffset":0,"componentType":5126,"count":60,"type":"VEC3","min":[-0.0702581,-0.530635,-2.63725],"max":[2.57026,2.03064,-0.567]},{"bufferView":13,"byteOffset":0,"componentType":5126,"count":60,"type":"VEC2"},{"bufferView":14,"byteOffset":0,"componentType":5123,"count":60,"type":"SCALAR"},{"bufferView":15,"byteOffset":0,"componentType":5126,"count":60,"type":"VEC3","min":[-2.57026,-0.780635,-2.63725],"max":[0.0702581,1.78064,-0.567]},{"bufferView":16,"byteOffset":0,"componentType":5126,"count":60,"type":"VEC2"},{"bufferView":17,"byteOffset":0,"componentType":5123,"count":60,"type":"SCALAR"}],
  "bufferViews": [{"buffer":0,"byteOffset":0,"byteLength":720,"target":34962},{"buffer":0,"byteOffset":720,"byteLength":480,"target":34962},{"buffer":0,"byteOffset":1200,"byteLength":120,"target":34963},{"buffer":0,"byteOffset":1320,"byteLength":720,"target":34962},{"buffer":0,"byteOffset":2040,"byteLength":480,"target":34962},{"buffer":0,"byteOffset":2520,"byteLength":120,"target":34963},{"buffer":0,"byteOffset":2640,"byteLength":720,"target":34962},{"buffer":0,"byteOffset":3360,"byteLength":480,"target":34962},{"buffer":0,"byteOffset":3840,"byteLength":120,"target":34963},{"buffer":0,"byteOffset":3960,"byteLength":720,"target":34962},{"buffer":0,"byteOffset":4680,"byteLength":480,"target":34962},{"buffer":0,"byteOffset":5160,"byteLength":120,"target":34963},{"buffer":0,"byteOffset":5280,"byteLength":720,"target":34962},{"buffer":0,"byteOffset":6000,"byteLength":480,"target":34962},{"buffer":0,"byteOffset":6480,"byteLength":120,"target":34963},{"buffer":0,"byteOffset":6600,"byteLength":720,"target":34962},{"buffer":0,"byteOffset":7320,"byteLength":480,"target":34962},{"buffer":0,"byteOffset":7800,"byteLength":120,"target":34963}],
  "buffers": [{ "uri": "unnamed_10.bin", "byteLength": 7920 }]
}