{
  "asset": { "version": "2.0" },
  "scene": 0,
  "scenes": [{ "nodes": [0,1,2,3,4,5,6,7,8,9,10,11,12,13,14,15,16,17,18,19,20,21,22,23,24,25,26] }],
  "nodes": [{"mesh":0},{"mesh":1},{"mesh":2},{"mesh":3},{"mesh":4},{"mesh":5},{"mesh":6},{"mesh":7},{"mesh":8},{"mesh":9},{"mesh":10},{"mesh":11},{"mesh":12},{"mesh":13},{"mesh":14},{"mesh":15},{"mesh":16},{"mesh":17},{"mesh":18},{"mesh":19},{"mesh":20},{"mesh":21},{"mesh":22},{"mesh":23},{"mesh":24},{"mesh":25},{"mesh":26}],
  "meshes": [{"primitives":[{"attributes":{"POSITION":0,"TEXCOORD_0":1},"indices":2,"material":0}]},{"primitives":[{"attributes":{"POSITION":3,"TEXCOORD_0":4},"indices":5,"material":0}]},{"primitives":[{"attributes":{"POSITION":6,"TEXCOORD_0":7},"indices":8,"material":0}]},{"primitives":[{"attributes":{"POSITION":9,"TEXCOORD_0":10},"indices":11,"material":0}]},{"primitives":[{"attributes":{"POSITION":12,"TEXCOORD_0":13},"indices":14,"material":0}]},{"primitives":[{"attributes":{"POSITION":15,"TEXCOORD_0":16},"indices":17,"material":0}]},{"primitives":[{"attributes":{"POSITION":18,"TEXCOORD_0":19},"indices":20,"material":0}]},{"primitives":[{"attributes":{"POSITION":21,"TEXCOORD_0":22},"indices":23,"material":0}]},{"primitives":[{"attributes":{"POSITION":24,"TEXCOORD_0":25},"indices":26,"material":0}]},{"primitives":[{"attributes":{"POSITION":27,"TEXCOORD_0":28},"indices":29,"material":0}]},{"primitives":[{"attributes":{"POSITION":30,"TEXCOORD_0":31},"indices":32,"material":0}]},{"primitives":[{"attributes":{"POSITION":33,"TEXCOORD_0":34},"indices":35,"material":0}]},{"primitives":[{"attributes":{"POSITION":36,"TEXCOORD_0":37},"indices":38,"material":0}]},{"primitives":[{"attributes":{"POSITION":39,"TEXCOORD_0":40},"indices":41,"material":0}]},{"primitives":[{"attributes":{"POSITION":42,"TEXCOORD_0":43},"indices":44,"material":0}]},{"primitives":[{"attributes":{"POSITION":45,"TEXCOORD_0":46},"indices":47,"material":0}]},{"primitives":[{"attributes":{"POSITION":48,"TEXCOORD_0":49},"indices":50,"material":0}]},{"primitives":[{"attributes":{"POSITION":51,"TEXCOORD_0":52},"indices":53,"material":0}]},{"primitives":[{"attributes":{"POSITION":54,"TEXCOORD_0":55},"indices":56,"material":0}]},{"primitives":[{"attributes":{"POSITION":57,"TEXCOORD_0":58},"indices":59,"material":0}]},{"primitives":[{"attributes":{"POSITION":60,"TEXCOORD_0":61},"indices":62,"material":0}]},{"primitives":[{"attributes":{"POSITION":63,"TEXCOORD_0":64},"indices":65,"material":0}]},{"primitives":[{"attributes":{"POSITION":66,"TEXCOORD_0":67},"indices":68,"material":0}]},{"primitives":[{"attributes":{"POSITION":69,"TEXCOORD_0":70},"indices":71,"material":0}]},{"primitives":[{"attributes":{"POSITION":72,"TEXCOORD_0":73},"indices":74,"material":0}]},{"primitives":[{"attributes":{"POSITION":75,"TEXCOORD_0":76},"indices":77,"material":0}]},{"primitives":[{"attributes":{"POSITION":78,"TEXCOORD_0":79},"indices":80,"material":0}]}],
  "materials": [{
    "pbrMetallicRoughness": {
      "baseColorTexture": { "index": 0 },
      "metallicFactor": 0.0,
      "roughnessFactor": 1.0
    }
  }],
  "textures": [{ "source": 0 }],
  "images": [{ "uri": "workshop.png" }],
  "accessors": [{"bufferView":0,"byteOffset":0,"componentType":5126,"count":36,"type":"VEC3","min":[-3,5,-4.75],"max":[2.75,7.25,-4.5]},{"bufferView":1,"byteOffset":0,"componentType":5126,"count":36,"type":"VEC2"},{"bufferView":2,"byteOffset":0,"componentType":5123,"count":36,"type":"SCALAR"},{"bufferView":3,"byteOffset":0,"componentType":5126,"count":36,"type":"VEC3","min":[1.25,-1.5,-4.75],"max":[2.25,-0.75,-4.5]},{"bufferView":4,"byteOffset":0,"componentType":5126,"count":36,"type":"VEC2"},{"bufferView":5,"byteOffset":0,"componentType":5123,"count":36,"type":"SCALAR"},{"bufferView":6,"byteOffset":0,"componentType":5126,"count":36,"type":"VEC3","min":[1.25,-1.5,-4.5],"max":[2.25,1,-4.25]},{"bufferView":7,"byteOffset":0,"componentType":5126,"count":36,"type":"VEC2"},{"bufferView":8,"byteOffset":0,"componentType":5123,"count":36,"type":"SCALAR"},{"bufferView":9,"byteOffset":0,"componentType":5126,"count":36,"type":"VEC3","min":[-3.25,-1.5,-4.75],"max":[-2.25,-0.75,-4.5]},{"bufferView":10,"byteOffset":0,"componentType":5126,"count":36,"type":"VEC2"},{"bufferView":11,"byteOffset":0,"componentType":5123,"count":36,"type":"SCALAR"},{"bufferView":12,"byteOffset":0,"componentType":5126,"count":36,"type":"VEC3","min":[-3.25,-1.5,-4.5],"max":[-2.25,1,-4.25]},{"bufferView":13,"byteOffset":0,"componentType":5126,"count":36,"type":"VEC2"},{"bufferView":14,"byteOffset":0,"componentType":5123,"count":36,"type":"SCALAR"},{"bufferView":15,"byteOffset":0,"componentType":5126,"count":36,"type":"VEC3","min":[-3.25,1,-4.5],"max":[2.25,2,-4.25]},{"bufferView":16,"byteOffset":0,"componentType":5126,"count":36,"type":"VEC2"},{"bufferView":17,"byteOffset":0,"componentType":5123,"count":36,"type":"SCALAR"},{"bufferView":18,"byteOffset":0,"componentType":5126,"count":60,"type":"VEC3","min":[-5.75,1.75,-5.25],"max":[5.5,2.5,5.25]},{"bufferView":19,"byteOffset":0,"componentType":5126,"count":60,"type":"VEC2"},{"bufferView":20,"byteOffset":0,"componentType":5123,"count":60,"type":"SCALAR"},{"bufferView":21,"byteOffset":0,"componentType":5126,"count":60,"type":"VEC3","min":[-5.75,-2.25,-5.25],"max":[5.5,-1.5,5.25]},{"bufferView":22,"byteOffset":0,"componentType":5126,"count":60,"type":"VEC2"},{"bufferView":23,"byteOffset":0,"componentType":5123,"count":60,"type":"SCALAR"},{"bufferView":24,"byteOffset":0,"componentType":5126,"count":60,"type":"VEC3","min":[-5.25,-1.75,-4.25],"max":[5,4.25,4.25]},{"bufferView":25,"byteOffset":0,"componentType":5126,"count":60,"type":"VEC2"},{"bufferView":26,"byteOffset":0,"componentType":5123,"count":60,"type":"SCALAR"},{"bufferView":27,"byteOffset":0,"componentType":5126,"count":60,"type":"VEC3","min":[-5.25,4.25,-4.75],"max":[5,5,4.75]},{"bufferView":28,"byteOffset":0,"componentType":5126,"count":60,"type":"VEC2"},{"bufferView":29,"byteOffset":0,"componentType":5123,"count":60,"type":"SCALAR"},{"bufferView":30,"byteOffset":0,"componentType":5126,"count":60,"type":"VEC3","min":[3.25,-2,-7.5],"max":[4.75,2.5,-5.5]},{"bufferView":31,"byteOffset":0,"componentType":5126,"count":60,"type":"VEC2"},{"bufferView":32,"byteOffset":0,"componentType":5123,"count":60,"type":"SCALAR"},{"bufferView":33,"byteOffset":0,"componentType":5126,"count":60,"type":"VEC3","min":[-5.25,-2.25,-7.5],"max":[-3.75,2.25,-5.5]},{"bufferView":34,"byteOffset":0,"componentType":5126,"count":60,"type":"VEC2"},{"bufferView":35,"byteOffset":0,"componentType":5123,"count":60,"type":"SCALAR"},{"bufferView":36,"byteOffset":0,"componentType":5126,"count":36,"type":"VEC3","min":[-4.75,-3,-6.75],"max":[-4.25,-1.75,-6.25]},{"bufferView":37,"byteOffset":0,"componentType":5126,"count":36,"type":"VEC2"},{"bufferView":38,"byteOffset":0,"componentType":5123,"count":36,"type":"SCALAR"},{"bufferView":39,"byteOffset":0,"componentType":5126,"count":36,"type":"VEC3","min":[3.75,-3,-6.75],"max":[4.25,-1.5,-6.25]},{"bufferView":40,"byteOffset":0,"componentType":5126,"count":36,"type":"VEC2"},{"bufferView":41,"byteOffset":0,"componentType":5123,"count":36,"type":"SCALAR"},{"bufferView":42,"byteOffset":0,"componentType":5126,"count":12,"type":"VEC3","min":[-2.25,-1.5,-4.75],"max":[1.25,1,-4.75]},{"bufferView":43,"byteOffset":0,"componentType":5126,"count":12,"type":"VEC2"},{"bufferView":44,"byteOffset":0,"componentType":5123,"count":12,"type":"SCALAR"},{"bufferView":45,"byteOffset":0,"componentType":5126,"count":48,"type":"VEC3","min":[-10,-2.9998,-6.5],"max":[-7,-0.0001,-6.25]},{"bufferView":46,"byteOffset":0,"componentType":5126,"count":48,"type":"VEC2"},{"bufferView":47,"byteOffset":0,"componentType":5123,"count":48,"type":"SCALAR"},{"bufferView":48,"byteOffset":0,"componentType":5126,"count":36,"type":"VEC3","min":[-7.5,-2.25,-5.75],"max":[-6.5,-1.25,-4.75]},{"bufferView":49,"byteOffset":0,"componentType":5126,"count":36,"type":"VEC2"},{"bufferView":50,"byteOffset":0,"componentType":5123,"count":36,"type":"SCALAR"},{"bufferView":51,"byteOffset":0,"componentType":5126,"count":36,"type":"VEC3","min":[-7.5,-2.25,-2.75],"max":[-6.5,-1.25,-1.75]},{"bufferView":52,"byteOffset":0,"componentType":5126,"count":36,"type":"VEC2"},{"bufferView":53,"byteOffset":0,"componentType":5123,"count":36,"type":"SCALAR"},{"bufferView":54,"byteOffset":0,"componentType":5126,"count":36,"type":"VEC3","min":[-7.5,-2.25,-4.75],"max":[-6.5,-1.25,-3.75]},{"bufferView":55,"byteOffset":0,"componentType":5126,"count":36,"type":"VEC2"},{"bufferView":56,"byteOffset":0,"componentType":5123,"count":36,"type":"SCALAR"},{"bufferView":57,"byteOffset":0,"componentType":5126,"count":36,"type":"VEC3","min":[-7.5,-2.25,-3.75],"max":[-6.5,-1.25,-2.75]},{"bufferView":58,"byteOffset":0,"componentType":5126,"count":36,"type":"VEC2"},{"bufferView":59,"byteOffset":0,"componentType":5123,"count":36,"type":"SCALAR"},{"bufferView":60,"byteOffset":0,"componentType":5126,"count":36,"type":"VEC3","min":[-7.5,-2.25,-0.75],"max":[-6.5,-1.25,0.25]},{"bufferView":61,"byteOffset":0,"componentType":5126,"count":36,"type":"VEC2"},{"bufferView":62,"byteOffset":0,"componentType":5123,"count":36,"type":"SCALAR"},{"bufferView":63,"byteOffset":0,"componentType":5126,"count":36,"type":"VEC3","min":[-7.5,-2.25,-1.75],"max":[-6.5,-1.25,-0.75]},{"bufferView":64,"byteOffset":0,"componentType":5126,"count":36,"type":"VEC2"},{"bufferView":65,"byteOffset":0,"componentType":5123,"count":36,"type":"SCALAR"},{"bufferView":66,"byteOffset":0,"componentType":5126,"count":36,"type":"VEC3","min":[-7.5,-2.25,0.25],"max":[-6.5,-1.25,1.25]},{"bufferView":67,"byteOffset":0,"componentType":5126,"count":36,"type":"VEC2"},{"bufferView":68,"byteOffset":0,"componentType":5123,"count":36,"type":"SCALAR"},{"bufferView":69,"byteOffset":0,"componentType":5126,"count":36,"type":"VEC3","min":[-7.5,-2.25,2.25],"max":[-6.5,-1.25,3.25]},{"bufferView":70,"byteOffset":0,"componentType":5126,"count":36,"type":"VEC2"},{"bufferView":71,"byteOffset":0,"componentType":5123,"count":36,"type":"SCALAR"},{"bufferView":72,"byteOffset":0,"componentType":5126,"count":36,"type":"VEC3","min":[-7.5,-2.25,1.25],"max":[-6.5,-1.25,2.25]},{"bufferView":73,"byteOffset":0,"componentType":5126,"count":36,"type":"VEC2"},{"bufferView":74,"byteOffset":0,"componentType":5123,"count":36,"type":"SCALAR"},{"bufferView":75,"byteOffset":0,"componentType":5126,"count":36,"type":"VEC3","min":[-7.5,-2.25,4.25],"max":[-6.5,-1.25,5.25]},{"bufferView":76,"byteOffset":0,"componentType":5126,"count":36,"type":"VEC2"},{"bufferView":77,"byteOffset":0,"componentType":5123,"count":36,"type":"SCALAR"},{"bufferView":78,"byteOffset":0,"componentType":5126,"count":36,"type":"VEC3","min":[-7.5,-2.25,3.25],"max":[-6.5,-1.25,4.25]},{"bufferView":79,"byteOffset":0,"componentType":5126,"count":36,"type":"VEC2"},{"bufferView":80,"byteOffset":0,"componentType":5123,"count":36,"type":"SCALAR"}],
  "bufferViews": [{"buffer":0,"byteOffset":0,"byteLength":432,"target":34962},{"buffer":0,"byteOffset":432,"byteLength":288,"target":34962},{"buffer":0,"byteOffset":720,"byteLength":72,"target":34963},{"buffer":0,"byteOffset":792,"byteLength":432,"target":34962},{"buffer":0,"byteOffset":1224,"byteLength":288,"target":34962},{"buffer":0,"byteOffset":1512,"byteLength":72,"target":34963},{"buffer":0,"byteOffset":1584,"byteLength":432,"target":34962},{"buffer":0,"byteOffset":2016,"byteLength":288,"target":34962},{"buffer":0,"byteOffset":2304,"byteLength":72,"target":34963},{"buffer":0,"byteOffset":2376,"byteLength":432,"target":34962},{"buffer":0,"byteOffset":2808,"byteLength":288,"target":34962},{"buffer":0,"byteOffset":3096,"byteLength":72,"target":34963},{"buffer":0,"byteOffset":3168,"byteLength":432,"target":34962},{"buffer":0,"byteOffset":3600,"byteLength":288,"target":34962},{"buffer":0,"byteOffset":3888,"byteLength":72,"target":34963},{"buffer":0,"byteOffset":3960,"byteLength":432,"target":34962},{"buffer":0,"byteOffset":4392,"byteLength":288,"target":34962},{"buffer":0,"byteOffset":4680,"byteLength":72,"target":34963},{"buffer":0,"byteOffset":4752,"byteLength":720,"target":34962},{"buffer":0,"byteOffset":5472,"byteLength":480,"target":34962},{"buffer":0,"byteOffset":5952,"byteLength":120,"target":34963},{"buffer":0,"byteOffset":6072,"byteLength":720,"target":34962},{"buffer":0,"byteOffset":6792,"byteLength":480,"target":34962},{"buffer":0,"byteOffset":7272,"byteLength":120,"target":34963},{"buffer":0,"byteOffset":7392,"byteLength":720,"target":34962},{"buffer":0,"byteOffset":8112,"byteLength":480,"target":34962},{"buffer":0,"byteOffset":8592,"byteLength":120,"target":34963},{"buffer":0,"byteOffset":8712,"byteLength":720,"target":34962},{"buffer":0,"byteOffset":9432,"byteLength":480,"target":34962},{"buffer":0,"byteOffset":9912,"byteLength":120,"target":34963},{"buffer":0,"byteOffset":10032,"byteLength":720,"target":34962},{"buffer":0,"byteOffset":10752,"byteLength":480,"target":34962},{"buffer":0,"byteOffset":11232,"byteLength":120,"target":34963},{"buffer":0,"byteOffset":11352,"byteLength":720,"target":34962},{"buffer":0,"byteOffset":12072,"byteLength":480,"target":34962},{"buffer":0,"byteOffset":12552,"byteLength":120,"target":34963},{"buffer":0,"byteOffset":12672,"byteLength":432,"target":34962},{"buffer":0,"byteOffset":13104,"byteLength":288,"target":34962},{"buffer":0,"byteOffset":13392,"byteLength":72,"target":34963},{"buffer":0,"byteOffset":13464,"byteLength":432,"target":34962},{"buffer":0,"byteOffset":13896,"byteLength":288,"target":34962},{"buffer":0,"byteOffset":14184,"byteLength":72,"target":34963},{"buffer":0,"byteOffset":14256,"byteLength":144,"target":34962},{"buffer":0,"byteOffset":14400,"byteLength":96,"target":34962},{"buffer":0,"byteOffset":14496,"byteLength":24,"target":34963},{"buffer":0,"byteOffset":14520,"byteLength":576,"target":34962},{"buffer":0,"byteOffset":15096,"byteLength":384,"target":34962},{"buffer":0,"byteOffset":15480,"byteLength":96,"target":34963},{"buffer":0,"byteOffset":15576,"byteLength":432,"target":34962},{"buffer":0,"byteOffset":16008,"byteLength":288,"target":34962},{"buffer":0,"byteOffset":16296,"byteLength":72,"target":34963},{"buffer":0,"byteOffset":16368,"byteLength":432,"target":34962},{"buffer":0,"byteOffset":16800,"byteLength":288,"target":34962},{"buffer":0,"byteOffset":17088,"byteLength":72,"target":34963},{"buffer":0,"byteOffset":17160,"byteLength":432,"target":34962},{"buffer":0,"byteOffset":17592,"byteLength":288,"target":34962},{"buffer":0,"byteOffset":17880,"byteLength":72,"target":34963},{"buffer":0,"byteOffset":17952,"byteLength":432,"target":34962},{"buffer":0,"byteOffset":18384,"byteLength":288,"target":34962},{"buffer":0,"byteOffset":18672,"byteLength":72,"target":34963},{"buffer":0,"byteOffset":18744,"byteLength":432,"target":34962},{"buffer":0,"byteOffset":19176,"byteLength":288,"target":34962},{"buffer":0,"byteOffset":19464,"byteLength":72,"target":34963},{"buffer":0,"byteOffset":19536,"byteLength":432,"target":34962},{"buffer":0,"byteOffset":19968,"byteLength":288,"target":34962},{"buffer":0,"byteOffset":20256,"byteLength":72,"target":34963},{"buffer":0,"byteOffset":20328,"byteLength":432,"target":34962},{"buffer":0,"byteOffset":20760,"byteLength":288,"target":34962},{"buffer":0,"byteOffset":21048,"byteLength":72,"target":34963},{"buffer":0,"byteOffset":21120,"byteLength":432,"target":34962},{"buffer":0,"byteOffset":21552,"byteLength":288,"target":34962},{"buffer":0,"byteOffset":21840,"byteLength":72,"target":34963},{"buffer":0,"byteOffset":21912,"byteLength":432,"target":34962},{"buffer":0,"byteOffset":22344,"byteLength":288,"target":34962},{"buffer":0,"byteOffset":22632,"byteLength":72,"target":34963},{"buffer":0,"byteOffset":22704,"byteLength":432,"target":34962},{"buffer":0,"byteOffset":23136,"byteLength":288,"target":34962},{"buffer":0,"byteOffset":23424,"byteLength":72,"target":34963},{"buffer":0,"byteOffset":23496,"byteLength":432,"target":34962},{"buffer":0,"byteOffset":23928,"byteLength":288,"target":34962},{"buffer":0,"byteOffset":24216,"byteLength":72,"target":34963}],
  "buffers": [{ "uri": "workshop.bin", "byteLength": 24288 }]
}