{
  "asset": { "version": "2.0" },
  "scene": 0,
  "scenes": [{ "nodes": [0,1,2,3,4,5,6,7,8,9,10,11,12,13,14,15,16,17,18,19,20,21,22,23,24,25,26,27,28,29,30,31] }],
  "nodes": [{"mesh":0},{"mesh":1},{"mesh":2},{"mesh":3},{"mesh":4},{"mesh":5},{"mesh":6},{"mesh":7},{"mesh":8},{"mesh":9},{"mesh":10},{"mesh":11},{"mesh":12},{"mesh":13},{"mesh":14},{"mesh":15},{"mesh":16},{"mesh":17},{"mesh":18},{"mesh":19},{"mesh":20},{"mesh":21},{"mesh":22},{"mesh":23},{"mesh":24},{"mesh":25},{"mesh":26},{"mesh":27},{"mesh":28},{"mesh":29},{"mesh":30},{"mesh":31}],
  "meshes": [{"primitives":[{"attributes":{"POSITION":0,"TEXCOORD_0":1},"indices":2,"material":0}]},{"primitives":[{"attributes":{"POSITION":3,"TEXCOORD_0":4},"indices":5,"material":0}]},{"primitives":[{"attributes":{"POSITION":6,"TEXCOORD_0":7},"indices":8,"material":0}]},{"primitives":[{"attributes":{"POSITION":9,"TEXCOORD_0":10},"indices":11,"material":0}]},{"primitives":[{"attributes":{"POSITION":12,"TEXCOORD_0":13},"indices":14,"material":0}]},{"primitives":[{"attributes":{"POSITION":15,"TEXCOORD_0":16},"indices":17,"material":0}]},{"primitives":[{"attributes":{"POSITION":18,"TEXCOORD_0":19},"indices":20,"material":0}]},{"primitives":[{"attributes":{"POSITION":21,"TEXCOORD_0":22},"indices":23,"material":0}]},{"primitives":[{"attributes":{"POSITION":24,"TEXCOORD_0":25},"indices":26,"material":0}]},{"primitives":[{"attributes":{"POSITION":27,"TEXCOORD_0":28},"indices":29,"material":0}]},{"primitives":[{"attributes":{"POSITION":30,"TEXCOORD_0":31},"indices":32,"material":0}]},{"primitives":[{"attributes":{"POSITION":33,"TEXCOORD_0":34},"indices":35,"material":0}]},{"primitives":[{"attributes":{"POSITION":36,"TEXCOORD_0":37},"indices":38,"material":0}]},{"primitives":[{"attributes":{"POSITION":39,"TEXCOORD_0":40},"indices":41,"material":0}]},{"primitives":[{"attributes":{"POSITION":42,"TEXCOORD_0":43},"indices":44,"material":0}]},{"primitives":[{"attributes":{"POSITION":45,"TEXCOORD_0":46},"indices":47,"material":0}]},{"primitives":[{"attributes":{"POSITION":48,"TEXCOORD_0":49},"indices":50,"material":0}]},{"primitives":[{"attributes":{"POSITION":51,"TEXCOORD_0":52},"indices":53,"material":0}]},{"primitives":[{"attributes":{"POSITION":54,"TEXCOORD_0":55},"indices":56,"material":0}]},{"primitives":[{"attributes":{"POSITION":57,"TEXCOORD_0":58},"indices":59,"material":0}]},{"primitives":[{"attributes":{"POSITION":60,"TEXCOORD_0":61},"indices":62,"material":0}]},{"primitives":[{"attributes":{"POSITION":63,"TEXCOORD_0":64},"indices":65,"material":0}]},{"primitives":[{"attributes":{"POSITION":66,"TEXCOORD_0":67},"indices":68,"material":0}]},{"primitives":[{"attributes":{"POSITION":69,"TEXCOORD_0":70},"indices":71,"material":0}]},{"primitives":[{"attributes":{"POSITION":72,"TEXCOORD_0":73},"indices":74,"material":0}]},{"primitives":[{"attributes":{"POSITION":75,"TEXCOORD_0":76},"indices":77,"material":0}]},{"primitives":[{"attributes":{"POSITION":78,"TEXCOORD_0":79},"indices":80,"material":0}]},{"primitives":[{"attributes":{"POSITION":81,"TEXCOORD_0":82},"indices":83,"material":0}]},{"primitives":[{"attributes":{"POSITION":84,"TEXCOORD_0":85},"indices":86,"material":0}]},{"primitives":[{"attributes":{"POSITION":87,"TEXCOORD_0":88},"indices":89,"material":0}]},{"primitives":[{"attributes":{"POSITION":90,"TEXCOORD_0":91},"indices":92,"material":0}]},{"primitives":[{"attributes":{"POSITION":93,"TEXCOORD_0":94},"indices":95,"material":0}]}],
  "materials": [{
    "pbrMetallicRoughness": {
      "baseColorTexture": { "index": 0 },
      "metallicFactor": 0.0,
      "roughnessFactor": 1.0
    }
  }],
  "textures": [{ "source": 0 }],
  "images": [{ "uri": "Solar-Station.png" }],
  "accessors": [{"bufferView":0,"byteOffset":0,"componentType":5126,"count":12,"type":"VEC3","min":[2,-0.25,10.5],"max":[2,1.7,10.9]},{"bufferView":1,"byteOffset":0,"componentType":5126,"count":12,"type":"VEC2"},{"bufferView":2,"byteOffset":0,"componentType":5123,"count":12,"type":"SCALAR"},{"bufferView":3,"byteOffset":0,"componentType":5126,"count":12,"type":"VEC3","min":[1.8,0.5,9.82],"max":[1.8,0.86,11.7]},{"bufferView":4,"byteOffset":0,"componentType":5126,"count":12,"type":"VEC2"},{"bufferView":5,"byteOffset":0,"componentType":5123,"count":12,"type":"SCALAR"},{"bufferView":6,"byteOffset":0,"componentType":5126,"count":36,"type":"VEC3","min":[-0.75,-1.5,9],"max":[1.75,3,12.5]},{"bufferView":7,"byteOffset":0,"componentType":5126,"count":36,"type":"VEC2"},{"bufferView":8,"byteOffset":0,"componentType":5123,"count":36,"type":"SCALAR"},{"bufferView":9,"byteOffset":0,"componentType":5126,"count":36,"type":"VEC3","min":[-0.75,-1.5,12.5],"max":[1.75,3,16]},{"bufferView":10,"byteOffset":0,"componentType":5126,"count":36,"type":"VEC2"},{"bufferView":11,"byteOffset":0,"componentType":5123,"count":36,"type":"SCALAR"},{"bufferView":12,"byteOffset":0,"componentType":5126,"count":36,"type":"VEC3","min":[-0.75,3,9],"max":[1.75,7.5,12.5]},{"bufferView":13,"byteOffset":0,"componentType":5126,"count":36,"type":"VEC2"},{"bufferView":14,"byteOffset":0,"componentType":5123,"count":36,"type":"SCALAR"},{"bufferView":15,"byteOffset":0,"componentType":5126,"count":36,"type":"VEC3","min":[-0.75,3,12.5],"max":[1.75,7.5,16]},{"bufferView":16,"byteOffset":0,"componentType":5126,"count":36,"type":"VEC2"},{"bufferView":17,"byteOffset":0,"componentType":5123,"count":36,"type":"SCALAR"},{"bufferView":18,"byteOffset":0,"componentType":5126,"count":12,"type":"VEC3","min":[2,4.5,10.5],"max":[2,6.45,10.9]},{"bufferView":19,"byteOffset":0,"componentType":5126,"count":12,"type":"VEC2"},{"bufferView":20,"byteOffset":0,"componentType":5123,"count":12,"type":"SCALAR"},{"bufferView":21,"byteOffset":0,"componentType":5126,"count":12,"type":"VEC3","min":[2,4.5,14],"max":[2,6.45,14.4]},{"bufferView":22,"byteOffset":0,"componentType":5126,"count":12,"type":"VEC2"},{"bufferView":23,"byteOffset":0,"componentType":5123,"count":12,"type":"SCALAR"},{"bufferView":24,"byteOffset":0,"componentType":5126,"count":12,"type":"VEC3","min":[2,-0.25,14],"max":[2,1.7,14.4]},{"bufferView":25,"byteOffset":0,"componentType":5126,"count":12,"type":"VEC2"},{"bufferView":26,"byteOffset":0,"componentType":5123,"count":12,"type":"SCALAR"},{"bufferView":27,"byteOffset":0,"componentType":5126,"count":12,"type":"VEC3","min":[1.8,5.25,9.82],"max":[1.8,5.61,11.7]},{"bufferView":28,"byteOffset":0,"componentType":5126,"count":12,"type":"VEC2"},{"bufferView":29,"byteOffset":0,"componentType":5123,"count":12,"type":"SCALAR"},{"bufferView":30,"byteOffset":0,"componentType":5126,"count":12,"type":"VEC3","min":[1.8,5.25,13.32],"max":[1.8,5.61,15.2]},{"bufferView":31,"byteOffset":0,"componentType":5126,"count":12,"type":"VEC2"},{"bufferView":32,"byteOffset":0,"componentType":5123,"count":12,"type":"SCALAR"},{"bufferView":33,"byteOffset":0,"componentType":5126,"count":12,"type":"VEC3","min":[1.8,0.5,13.32],"max":[1.8,0.86,15.2]},{"bufferView":34,"byteOffset":0,"componentType":5126,"count":12,"type":"VEC2"},{"bufferView":35,"byteOffset":0,"componentType":5123,"count":12,"type":"SCALAR"},{"bufferView":36,"byteOffset":0,"componentType":5126,"count":36,"type":"VEC3","min":[-1.75,-1,13.25],"max":[-0.75,3.25,14.25]},{"bufferView":37,"byteOffset":0,"componentType":5126,"count":36,"type":"VEC2"},{"bufferView":38,"byteOffset":0,"componentType":5123,"count":36,"type":"SCALAR"},{"bufferView":39,"byteOffset":0,"componentType":5126,"count":36,"type":"VEC3","min":[-1.75,-1,12.75],"max":[-0.75,2.25,13.25]},{"bufferView":40,"byteOffset":0,"componentType":5126,"count":36,"type":"VEC2"},{"bufferView":41,"byteOffset":0,"componentType":5123,"count":36,"type":"SCALAR"},{"bufferView":42,"byteOffset":0,"componentType":5126,"count":36,"type":"VEC3","min":[-3,-1,14.25],"max":[-0.75,2.25,15.5]},{"bufferView":43,"byteOffset":0,"componentType":5126,"count":36,"type":"VEC2"},{"bufferView":44,"byteOffset":0,"componentType":5123,"count":36,"type":"SCALAR"},{"bufferView":45,"byteOffset":0,"componentType":5126,"count":36,"type":"VEC3","min":[-5.75,-1.25,6.25],"max":[-3.25,3.25,9]},{"bufferView":46,"byteOffset":0,"componentType":5126,"count":36,"type":"VEC2"},{"bufferView":47,"byteOffset":0,"componentType":5123,"count":36,"type":"SCALAR"},{"bufferView":48,"byteOffset":0,"componentType":5126,"count":36,"type":"VEC3","min":[-9.25,-1.25,5.75],"max":[-6.75,3.25,8.5]},{"bufferView":49,"byteOffset":0,"componentType":5126,"count":36,"type":"VEC2"},{"bufferView":50,"byteOffset":0,"componentType":5123,"count":36,"type":"SCALAR"},{"bufferView":51,"byteOffset":0,"componentType":5126,"count":36,"type":"VEC3","min":[-13,-1.25,5.5],"max":[-10.5,3.25,8.25]},{"bufferView":52,"byteOffset":0,"componentType":5126,"count":36,"type":"VEC2"},{"bufferView":53,"byteOffset":0,"componentType":5123,"count":36,"type":"SCALAR"},{"bufferView":54,"byteOffset":0,"componentType":5126,"count":36,"type":"VEC3","min":[-16.5,-1.25,5],"max":[-14,3.25,7.75]},{"bufferView":55,"byteOffset":0,"componentType":5126,"count":36,"type":"VEC2"},{"bufferView":56,"byteOffset":0,"componentType":5123,"count":36,"type":"SCALAR"},{"bufferView":57,"byteOffset":0,"componentType":5126,"count":36,"type":"VEC3","min":[-20,-1.25,4.75],"max":[-17.5,3.25,7.5]},{"bufferView":58,"byteOffset":0,"componentType":5126,"count":36,"type":"VEC2"},{"bufferView":59,"byteOffset":0,"componentType":5123,"count":36,"type":"SCALAR"},{"bufferView":60,"byteOffset":0,"componentType":5126,"count":36,"type":"VEC3","min":[-5.75,-1.25,11],"max":[-3.25,3.25,13.75]},{"bufferView":61,"byteOffset":0,"componentType":5126,"count":36,"type":"VEC2"},{"bufferView":62,"byteOffset":0,"componentType":5123,"count":36,"type":"SCALAR"},{"bufferView":63,"byteOffset":0,"componentType":5126,"count":36,"type":"VEC3","min":[-9.25,-1.25,10.75],"max":[-6.75,3.25,13.5]},{"bufferView":64,"byteOffset":0,"componentType":5126,"count":36,"type":"VEC2"},{"bufferView":65,"byteOffset":0,"componentType":5123,"count":36,"type":"SCALAR"},{"bufferView":66,"byteOffset":0,"componentType":5126,"count":36,"type":"VEC3","min":[-13,-1.25,10.5],"max":[-10.5,3.25,13.25]},{"bufferView":67,"byteOffset":0,"componentType":5126,"count":36,"type":"VEC2"},{"bufferView":68,"byteOffset":0,"componentType":5123,"count":36,"type":"SCALAR"},{"bufferView":69,"byteOffset":0,"componentType":5126,"count":36,"type":"VEC3","min":[-16.5,-1.25,10],"max":[-14,3.25,12.75]},{"bufferView":70,"byteOffset":0,"componentType":5126,"count":36,"type":"VEC2"},{"bufferView":71,"byteOffset":0,"componentType":5123,"count":36,"type":"SCALAR"},{"bufferView":72,"byteOffset":0,"componentType":5126,"count":36,"type":"VEC3","min":[-20,-1.25,9.5],"max":[-17.5,3.25,12.25]},{"bufferView":73,"byteOffset":0,"componentType":5126,"count":36,"type":"VEC2"},{"bufferView":74,"byteOffset":0,"componentType":5123,"count":36,"type":"SCALAR"},{"bufferView":75,"byteOffset":0,"componentType":5126,"count":36,"type":"VEC3","min":[-20,-1.25,14.5],"max":[-17.5,3.25,17.25]},{"bufferView":76,"byteOffset":0,"componentType":5126,"count":36,"type":"VEC2"},{"bufferView":77,"byteOffset":0,"componentType":5123,"count":36,"type":"SCALAR"},{"bufferView":78,"byteOffset":0,"componentType":5126,"count":36,"type":"VEC3","min":[-9.25,-1.25,15.75],"max":[-6.75,3.25,18.5]},{"bufferView":79,"byteOffset":0,"componentType":5126,"count":36,"type":"VEC2"},{"bufferView":80,"byteOffset":0,"componentType":5123,"count":36,"type":"SCALAR"},{"bufferView":81,"byteOffset":0,"componentType":5126,"count":36,"type":"VEC3","min":[-16.5,-1.25,15],"max":[-14,3.25,17.75]},{"bufferView":82,"byteOffset":0,"componentType":5126,"count":36,"type":"VEC2"},{"bufferView":83,"byteOffset":0,"componentType":5123,"count":36,"type":"SCALAR"},{"bufferView":84,"byteOffset":0,"componentType":5126,"count":36,"type":"VEC3","min":[-13,-1.25,15.5],"max":[-10.5,3.25,18.25]},{"bufferView":85,"byteOffset":0,"componentType":5126,"count":36,"type":"VEC2"},{"bufferView":86,"byteOffset":0,"componentType":5123,"count":36,"type":"SCALAR"},{"bufferView":87,"byteOffset":0,"componentType":5126,"count":36,"type":"VEC3","min":[-5.75,-1.25,16],"max":[-3.25,3.25,18.75]},{"bufferView":88,"byteOffset":0,"componentType":5126,"count":36,"type":"VEC2"},{"bufferView":89,"byteOffset":0,"componentType":5123,"count":36,"type":"SCALAR"},{"bufferView":90,"byteOffset":0,"componentType":5126,"count":60,"type":"VEC3","min":[-9.9,-1.6,-25.15],"max":[11.7,-1,-2.95]},{"bufferView":91,"byteOffset":0,"componentType":5126,"count":60,"type":"VEC2"},{"bufferView":92,"byteOffset":0,"componentType":5123,"count":60,"type":"SCALAR"},{"bufferView":93,"byteOffset":0,"componentType":5126,"count":36,"type":"VEC3","min":[-0.25,-1.5,-4],"max":[1.25,-0.5,13.25]},{"bufferView":94,"byteOffset":0,"componentType":5126,"count":36,"type":"VEC2"},{"bufferView":95,"byteOffset":0,"componentType":5123,"count":36,"type":"SCALAR"}],
  "bufferViews": [{"buffer":0,"byteOffset":0,"byteLength":144,"target":34962},{"buffer":0,"byteOffset":144,"byteLength":96,"target":34962},{"buffer":0,"byteOffset":240,"byteLength":24,"target":34963},{"buffer":0,"byteOffset":264,"byteLength":144,"target":34962},{"buffer":0,"byteOffset":408,"byteLength":96,"target":34962},{"buffer":0,"byteOffset":504,"byteLength":24,"target":34963},{"buffer":0,"byteOffset":528,"byteLength":432,"target":34962},{"buffer":0,"byteOffset":960,"byteLength":288,"target":34962},{"buffer":0,"byteOffset":1248,"byteLength":72,"target":34963},{"buffer":0,"byteOffset":1320,"byteLength":432,"target":34962},{"buffer":0,"byteOffset":1752,"byteLength":288,"target":34962},{"buffer":0,"byteOffset":2040,"byteLength":72,"target":34963},{"buffer":0,"byteOffset":2112,"byteLength":432,"target":34962},{"buffer":0,"byteOffset":2544,"byteLength":288,"target":34962},{"buffer":0,"byteOffset":2832,"byteLength":72,"target":34963},{"buffer":0,"byteOffset":2904,"byteLength":432,"target":34962},{"buffer":0,"byteOffset":3336,"byteLength":288,"target":34962},{"buffer":0,"byteOffset":3624,"byteLength":72,"target":34963},{"buffer":0,"byteOffset":3696,"byteLength":144,"target":34962},{"buffer":0,"byteOffset":3840,"byteLength":96,"target":34962},{"buffer":0,"byteOffset":3936,"byteLength":24,"target":34963},{"buffer":0,"byteOffset":3960,"byteLength":144,"target":34962},{"buffer":0,"byteOffset":4104,"byteLength":96,"target":34962},{"buffer":0,"byteOffset":4200,"byteLength":24,"target":34963},{"buffer":0,"byteOffset":4224,"byteLength":144,"target":34962},{"buffer":0,"byteOffset":4368,"byteLength":96,"target":34962},{"buffer":0,"byteOffset":4464,"byteLength":24,"target":34963},{"buffer":0,"byteOffset":4488,"byteLength":144,"target":34962},{"buffer":0,"byteOffset":4632,"byteLength":96,"target":34962},{"buffer":0,"byteOffset":4728,"byteLength":24,"target":34963},{"buffer":0,"byteOffset":4752,"byteLength":144,"target":34962},{"buffer":0,"byteOffset":4896,"byteLength":96,"target":34962},{"buffer":0,"byteOffset":4992,"byteLength":24,"target":34963},{"buffer":0,"byteOffset":5016,"byteLength":144,"target":34962},{"buffer":0,"byteOffset":5160,"byteLength":96,"target":34962},{"buffer":0,"byteOffset":5256,"byteLength":24,"target":34963},{"buffer":0,"byteOffset":5280,"byteLength":432,"target":34962},{"buffer":0,"byteOffset":5712,"byteLength":288,"target":34962},{"buffer":0,"byteOffset":6000,"byteLength":72,"target":34963},{"buffer":0,"byteOffset":6072,"byteLength":432,"target":34962},{"buffer":0,"byteOffset":6504,"byteLength":288,"target":34962},{"buffer":0,"byteOffset":6792,"byteLength":72,"target":34963},{"buffer":0,"byteOffset":6864,"byteLength":432,"target":34962},{"buffer":0,"byteOffset":7296,"byteLength":288,"target":34962},{"buffer":0,"byteOffset":7584,"byteLength":72,"target":34963},{"buffer":0,"byteOffset":7656,"byteLength":432,"target":34962},{"buffer":0,"byteOffset":8088,"byteLength":288,"target":34962},{"buffer":0,"byteOffset":8376,"byteLength":72,"target":34963},{"buffer":0,"byteOffset":8448,"byteLength":432,"target":34962},{"buffer":0,"byteOffset":8880,"byteLength":288,"target":34962},{"buffer":0,"byteOffset":9168,"byteLength":72,"target":34963},{"buffer":0,"byteOffset":9240,"byteLength":432,"target":34962},{"buffer":0,"byteOffset":9672,"byteLength":288,"target":34962},{"buffer":0,"byteOffset":9960,"byteLength":72,"target":34963},{"buffer":0,"byteOffset":10032,"byteLength":432,"target":34962},{"buffer":0,"byteOffset":10464,"byteLength":288,"target":34962},{"buffer":0,"byteOffset":10752,"byteLength":72,"target":34963},{"buffer":0,"byteOffset":10824,"byteLength":432,"target":34962},{"buffer":0,"byteOffset":11256,"byteLength":288,"target":34962},{"buffer":0,"byteOffset":11544,"byteLength":72,"target":34963},{"buffer":0,"byteOffset":11616,"byteLength":432,"target":34962},{"buffer":0,"byteOffset":12048,"byteLength":288,"target":34962},{"buffer":0,"byteOffset":12336,"byteLength":72,"target":34963},{"buffer":0,"byteOffset":12408,"byteLength":432,"target":34962},{"buffer":0,"byteOffset":12840,"byteLength":288,"target":34962},{"buffer":0,"byteOffset":13128,"byteLength":72,"target":34963},{"buffer":0,"byteOffset":13200,"byteLength":432,"target":34962},{"buffer":0,"byteOffset":13632,"byteLength":288,"target":34962},{"buffer":0,"byteOffset":13920,"byteLength":72,"target":34963},{"buffer":0,"byteOffset":13992,"byteLength":432,"target":34962},{"buffer":0,"byteOffset":14424,"byteLength":288,"target":34962},{"buffer":0,"byteOffset":14712,"byteLength":72,"target":34963},{"buffer":0,"byteOffset":14784,"byteLength":432,"target":34962},{"buffer":0,"byteOffset":15216,"byteLength":288,"target":34962},{"buffer":0,"byteOffset":15504,"byteLength":72,"target":34963},{"buffer":0,"byteOffset":15576,"byteLength":432,"target":34962},{"buffer":0,"byteOffset":16008,"byteLength":288,"target":34962},{"buffer":0,"byteOffset":16296,"byteLength":72,"target":34963},{"buffer":0,"byteOffset":16368,"byteLength":432,"target":34962},{"buffer":0,"byteOffset":16800,"byteLength":288,"target":34962},{"buffer":0,"byteOffset":17088,"byteLength":72,"target":34963},{"buffer":0,"byteOffset":17160,"byteLength":432,"target":34962},{"buffer":0,"byteOffset":17592,"byteLength":288,"target":34962},{"buffer":0,"byteOffset":17880,"byteLength":72,"target":34963},{"buffer":0,"byteOffset":17952,"byteLength":432,"target":34962},{"buffer":0,"byteOffset":18384,"byteLength":288,"target":34962},{"buffer":0,"byteOffset":18672,"byteLength":72,"target":34963},{"buffer":0,"byteOffset":18744,"byteLength":432,"target":34962},{"buffer":0,"byteOffset":19176,"byteLength":288,"target":34962},{"buffer":0,"byteOffset":19464,"byteLength":72,"target":34963},{"buffer":0,"byteOffset":19536,"byteLength":720,"target":34962},{"buffer":0,"byteOffset":20256,"byteLength":480,"target":34962},{"buffer":0,"byteOffset":20736,"byteLength":120,"target":34963},{"buffer":0,"byteOffset":20856,"byteLength":432,"target":34962},{"buffer":0,"byteOffset":21288,"byteLength":288,"target":34962},{"buffer":0,"byteOffset":21576,"byteLength":72,"target":34963}],
  "buffers": [{ "uri": "Solar-Station.bin", "byteLength": 21648 }]
}