{
  "asset": { "version": "2.0" },
  "scene": 0,
  "scenes": [{ "nodes": [0,1,2,3,4,5,6,7] }],
  "nodes": [{"mesh":0},{"mesh":1},{"mesh":2},{"mesh":3},{"mesh":4},{"mesh":5},{"mesh":6},{"mesh":7}],
  "meshes": [{"primitives":[{"attributes":{"POSITION":0,"TEXCOORD_0":1},"indices":2,"material":0}]},{"primitives":[{"attributes":{"POSITION":3,"TEXCOORD_0":4},"indices":5,"material":0}]},{"primitives":[{"attributes":{"POSITION":6,"TEXCOORD_0":7},"indices":8,"material":0}]},{"primitives":[{"attributes":{"POSITION":9,"TEXCOORD_0":10},"indices":11,"material":0}]},{"primitives":[{"attributes":{"POSITION":12,"TEXCOORD_0":13},"indices":14,"material":0}]},{"primitives":[{"attributes":{"POSITION":15,"TEXCOORD_0":16},"indices":17,"material":0}]},{"primitives":[{"attributes":{"POSITION":18,"TEXCOORD_0":19},"indices":20,"material":0}]},{"primitives":[{"attributes":{"POSITION":21,"TEXCOORD_0":22},"indices":23,"material":0}]}],
  "materials": [{
    "pbrMetallicRoughness": {
      "baseColorTexture": { "index": 0 },
      "metallicFactor": 0.0,
      "roughnessFactor": 1.0
    }
  }],
  "textures": [{ "source": 0 }],
  "images": [{ "uri": "tall-grass.png" }],
  "accessors": [{"bufferView":0,"byteOffset":0,"componentType":5126,"count":48,"type":"VEC3","min":[-0.25,-0.0697797,-2.41004],"max":[0.25,3.19889,-0.313376]},{"bufferView":1,"byteOffset":0,"componentType":5126,"count":48,"type":"VEC2"},{"bufferView":2,"byteOffset":0,"componentType":5123,"count":48,"type":"SCALAR"},{"bufferView":3,"byteOffset":0,"componentType":5126,"count":48,"type":"VEC3","min":[-0.25,-0.0697797,0.313376],"max":[0.25,3.19889,2.41004]},{"bufferView":4,"byteOffset":0,"componentType":5126,"count":48,"type":"VEC2"},{"bufferView":5,"byteOffset":0,"componentType":5123,"count":48,"type":"SCALAR"},{"bufferView":6,"byteOffset":0,"componentType":5126,"count":48,"type":"VEC3","min":[-1.54653,-0.0697797,-2.12962],"max":[-0.0651816,3.19889,-0.0638597]},{"bufferView":7,"byteOffset":0,"componentType":5126,"count":48,"type":"VEC2"},{"bufferView":8,"byteOffset":0,"componentType":5123,"count":48,"type":"SCALAR"},{"bufferView":9,"byteOffset":0,"componentType":5126,"count":48,"type":"VEC3","min":[-1.54653,-0.0697797,0.0638597],"max":[-0.0651816,3.19889,2.12962]},{"bufferView":10,"byteOffset":0,"componentType":5126,"count":48,"type":"VEC2"},{"bufferView":11,"byteOffset":0,"componentType":5123,"count":48,"type":"SCALAR"},{"bufferView":12,"byteOffset":0,"componentType":5126,"count":48,"type":"VEC3","min":[0.16093,-0.0697797,-1.99705],"max":[1.99705,3.19889,-0.16093]},{"bufferView":13,"byteOffset":0,"componentType":5126,"count":48,"type":"VEC2"},{"bufferView":14,"byteOffset":0,"componentType":5123,"count":48,"type":"SCALAR"},{"bufferView":15,"byteOffset":0,"componentType":5126,"count":48,"type":"VEC3","min":[0.16093,-0.0697797,0.16093],"max":[1.99705,3.19889,1.99705]},{"bufferView":16,"byteOffset":0,"componentType":5126,"count":48,"type":"VEC2"},{"bufferView":17,"byteOffset":0,"componentType":5123,"count":48,"type":"SCALAR"},{"bufferView":18,"byteOffset":0,"componentType":5126,"count":48,"type":"VEC3","min":[0.313376,-0.0697797,-0.25],"max":[2.41004,3.19889,0.25]},{"bufferView":19,"byteOffset":0,"componentType":5126,"count":48,"type":"VEC2"},{"bufferView":20,"byteOffset":0,"componentType":5123,"count":48,"type":"SCALAR"},{"bufferView":21,"byteOffset":0,"componentType":5126,"count":48,"type":"VEC3","min":[-2.41004,-0.0697797,-0.25],"max":[-0.313376,3.19889,0.25]},{"bufferView":22,"byteOffset":0,"componentType":5126,"count":48,"type":"VEC2"},{"bufferView":23,"byteOffset":0,"componentType":5123,"count":48,"type":"SCALAR"}],
  "bufferViews": [{"buffer":0,"byteOffset":0,"byteLength":576,"target":34962},{"buffer":0,"byteOffset":576,"byteLength":384,"target":34962},{"buffer":0,"byteOffset":960,"byteLength":96,"target":34963},{"buffer":0,"byteOffset":1056,"byteLength":576,"target":34962},{"buffer":0,"byteOffset":1632,"byteLength":384,"target":34962},{"buffer":0,"byteOffset":2016,"byteLength":96,"target":34963},{"buffer":0,"byteOffset":2112,"byteLength":576,"target":34962},{"buffer":0,"byteOffset":2688,"byteLength":384,"target":34962},{"buffer":0,"byteOffset":3072,"byteLength":96,"target":34963},{"buffer":0,"byteOffset":3168,"byteLength":576,"target":34962},{"buffer":0,"byteOffset":3744,"byteLength":384,"target":34962},{"buffer":0,"byteOffset":4128,"byteLength":96,"target":34963},{"buffer":0,"byteOffset":4224,"byteLength":576,"target":34962},{"buffer":0,"byteOffset":4800,"byteLength":384,"target":34962},{"buffer":0,"byteOffset":5184,"byteLength":96,"target":34963},{"buffer":0,"byteOffset":5280,"byteLength":576,"target":34962},{"buffer":0,"byteOffset":5856,"byteLength":384,"target":34962},{"buffer":0,"byteOffset":6240,"byteLength":96,"target":34963},{"buffer":0,"byteOffset":6336,"byteLength":576,"target":34962},{"buffer":0,"byteOffset":6912,"byteLength":384,"target":34962},{"buffer":0,"byteOffset":7296,"byteLength":96,"target":34963},{"buffer":0,"byteOffset":7392,"byteLength":576,"target":34962},{"buffer":0,"byteOffset":7968,"byteLength":384,"target":34962},{"buffer":0,"byteOffset":8352,"byteLength":96,"target":34963}],
  "buffers": [{ "uri": "tall-grass.bin", "byteLength": 8448 }]
}