{
  "asset": { "version": "2.0" },
  "scene": 0,
  "scenes": [{ "nodes": [0,1,2,3,4,5,6,7,8,9,10] }],
  "nodes": [{"mesh":0},{"mesh":1},{"mesh":2},{"mesh":3},{"mesh":4},{"mesh":5},{"mesh":6},{"mesh":7},{"mesh":8},{"mesh":9},{"mesh":10}],
  "meshes": [{"primitives":[{"attributes":{"POSITION":0,"TEXCOORD_0":1},"indices":2,"material":0}]},{"primitives":[{"attributes":{"POSITION":3,"TEXCOORD_0":4},"indices":5,"material":0}]},{"primitives":[{"attributes":{"POSITION":6,"TEXCOORD_0":7},"indices":8,"material":0}]},{"primitives":[{"attributes":{"POSITION":9,"TEXCOORD_0":10},"indices":11,"material":0}]},{"primitives":[{"attributes":{"POSITION":12,"TEXCOORD_0":13},"indices":14,"material":0}]},{"primitives":[{"attributes":{"POSITION":15,"TEXCOORD_0":16},"indices":17,"material":0}]},{"primitives":[{"attributes":{"POSITION":18,"TEXCOORD_0":19},"indices":20,"material":0}]},{"primitives":[{"attributes":{"POSITION":21,"TEXCOORD_0":22},"indices":23,"material":0}]},{"primitives":[{"attributes":{"POSITION":24,"TEXCOORD_0":25},"indices":26,"material":0}]},{"primitives":[{"attributes":{"POSITION":27,"TEXCOORD_0":28},"indices":29,"material":0}]},{"primitives":[{"attributes":{"POSITION":30,"TEXCOORD_0":31},"indices":32,"material":0}]}],
  "materials": [{
    "pbrMetallicRoughness": {
      "baseColorTexture": { "index": 0 },
      "metallicFactor": 0.0,
      "roughnessFactor": 1.0
    }
  }],
  "textures": [{ "source": 0 }],
  "images": [{ "uri": "unnamed_4.png" }],
  "accessors": [{"bufferView":0,"byteOffset":0,"componentType":5126,"count":60,"type":"VEC3","min":[-0.75,0.5,-1],"max":[0.75,1.25,1]},{"bufferView":1,"byteOffset":0,"componentType":5126,"count":60,"type":"VEC2"},{"bufferView":2,"byteOffset":0,"componentType":5123,"count":60,"type":"SCALAR"},{"bufferView":3,"byteOffset":0,"componentType":5126,"count":60,"type":"VEC3","min":[-0.75,-0.25,-1],"max":[0.75,0.5,1]},{"bufferView":4,"byteOffset":0,"componentType":5126,"count":60,"type":"VEC2"},{"bufferView":5,"byteOffset":0,"componentType":5123,"count":60,"type":"SCALAR"},{"bufferView":6,"byteOffset":0,"componentType":5126,"count":18,"type":"VEC3","min":[-0.25,1.25,-0.25],"max":[0.25,2,0.25]},{"bufferView":7,"byteOffset":0,"componentType":5126,"count":18,"type":"VEC2"},{"bufferView":8,"byteOffset":0,"componentType":5123,"count":18,"type":"SCALAR"},{"bufferView":9,"byteOffset":0,"componentType":5126,"count":12,"type":"VEC3","min":[0,2,-1.75],"max":[0.25,2,1.75]},{"bufferView":10,"byteOffset":0,"componentType":5126,"count":12,"type":"VEC2"},{"bufferView":11,"byteOffset":0,"componentType":5123,"count":12,"type":"SCALAR"},{"bufferView":12,"byteOffset":0,"componentType":5126,"count":84,"type":"VEC3","min":[-0.5,-0.5,0.25],"max":[0.5,-0.25,0.75]},{"bufferView":13,"byteOffset":0,"componentType":5126,"count":84,"type":"VEC2"},{"bufferView":14,"byteOffset":0,"componentType":5123,"count":84,"type":"SCALAR"},{"bufferView":15,"byteOffset":0,"componentType":5126,"count":84,"type":"VEC3","min":[-0.5,-0.5,-0.75],"max":[0.5,-0.25,-0.25]},{"bufferView":16,"byteOffset":0,"componentType":5126,"count":84,"type":"VEC2"},{"bufferView":17,"byteOffset":0,"componentType":5123,"count":84,"type":"SCALAR"},{"bufferView":18,"byteOffset":0,"componentType":5126,"count":36,"type":"VEC3","min":[0.75,0.25,0.25],"max":[1,0.75,0.5]},{"bufferView":19,"byteOffset":0,"componentType":5126,"count":36,"type":"VEC2"},{"bufferView":20,"byteOffset":0,"componentType":5123,"count":36,"type":"SCALAR"},{"bufferView":21,"byteOffset":0,"componentType":5126,"count":36,"type":"VEC3","min":[0.75,0.25,-0.5],"max":[1,0.75,-0.25]},{"bufferView":22,"byteOffset":0,"componentType":5126,"count":36,"type":"VEC2"},{"bufferView":23,"byteOffset":0,"componentType":5123,"count":36,"type":"SCALAR"},{"bufferView":24,"byteOffset":0,"componentType":5126,"count":48,"type":"VEC3","min":[0.436068,0.918889,-0.952335],"max":[1.07363,1.45867,-0.162666]},{"bufferView":25,"byteOffset":0,"componentType":5126,"count":48,"type":"VEC2"},{"bufferView":26,"byteOffset":0,"componentType":5123,"count":48,"type":"SCALAR"},{"bufferView":27,"byteOffset":0,"componentType":5126,"count":48,"type":"VEC3","min":[0.597941,0.937341,0.0991974],"max":[1.18217,1.43499,0.963305]},{"bufferView":28,"byteOffset":0,"componentType":5126,"count":48,"type":"VEC2"},{"bufferView":29,"byteOffset":0,"componentType":5123,"count":48,"type":"SCALAR"},{"bufferView":30,"byteOffset":0,"componentType":5126,"count":60,"type":"VEC3","min":[-0.853854,0.555886,-1],"max":[0.836516,1.24178,1]},{"bufferView":31,"byteOffset":0,"componentType":5126,"count":60,"type":"VEC2"},{"bufferView":32,"byteOffset":0,"componentType":5123,"count":60,"type":"SCALAR"}],
  "bufferViews": [{"buffer":0,"byteOffset":0,"byteLength":720,"target":34962},{"buffer":0,"byteOffset":720,"byteLength":480,"target":34962},{"buffer":0,"byteOffset":1200,"byteLength":120,"target":34963},{"buffer":0,"byteOffset":1320,"byteLength":720,"target":34962},{"buffer":0,"byteOffset":2040,"byteLength":480,"target":34962},{"buffer":0,"byteOffset":2520,"byteLength":120,"target":34963},{"buffer":0,"byteOffset":2640,"byteLength":216,"target":34962},{"buffer":0,"byteOffset":2856,"byteLength":144,"target":34962},{"buffer":0,"byteOffset":3000,"byteLength":36,"target":34963},{"buffer":0,"byteOffset":3036,"byteLength":144,"target":34962},{"buffer":0,"byteOffset":3180,"byteLength":96,"target":34962},{"buffer":0,"byteOffset":3276,"byteLength":24,"target":34963},{"buffer":0,"byteOffset":3300,"byteLength":1008,"target":34962},{"buffer":0,"byteOffset":4308,"byteLength":672,"target":34962},{"buffer":0,"byteOffset":4980,"byteLength":168,"target":34963},{"buffer":0,"byteOffset":5148,"byteLength":1008,"target":34962},{"buffer":0,"byteOffset":6156,"byteLength":672,"target":34962},{"buffer":0,"byteOffset":6828,"byteLength":168,"target":34963},{"buffer":0,"byteOffset":6996,"byteLength":432,"target":34962},{"buffer":0,"byteOffset":7428,"byteLength":288,"target":34962},{"buffer":0,"byteOffset":7716,"byteLength":72,"target":34963},{"buffer":0,"byteOffset":7788,"byteLength":432,"target":34962},{"buffer":0,"byteOffset":8220,"byteLength":288,"target":34962},{"buffer":0,"byteOffset":8508,"byteLength":72,"target":34963},{"buffer":0,"byteOffset":8580,"byteLength":576,"target":34962},{"buffer":0,"byteOffset":9156,"byteLength":384,"target":34962},{"buffer":0,"byteOffset":9540,"byteLength":96,"target":34963},{"buffer":0,"byteOffset":9636,"byteLength":576,"target":34962},{"buffer":0,"byteOffset":10212,"byteLength":384,"target":34962},{"buffer":0,"byteOffset":10596,"byteLength":96,"target":34963},{"buffer":0,"byteOffset":10692,"byteLength":720,"target":34962},{"buffer":0,"byteOffset":11412,"byteLength":480,"target":34962},{"buffer":0,"byteOffset":11892,"byteLength":120,"target":34963}],
  "buffers": [{ "uri": "unnamed_4.bin", "byteLength": 12012 }]
}