{
  "asset": { "version": "2.0" },
  "scene": 0,
  "scenes": [{ "nodes": [0,1,2,3,4,5,6,7,8,9,10,11,12] }],
  "nodes": [{"mesh":0},{"mesh":1},{"mesh":2},{"mesh":3},{"mesh":4},{"mesh":5},{"mesh":6},{"mesh":7},{"mesh":8},{"mesh":9},{"mesh":10},{"mesh":11},{"mesh":12}],
  "meshes": [{"primitives":[{"attributes":{"POSITION":0,"TEXCOORD_0":1},"indices":2,"material":0}]},{"primitives":[{"attributes":{"POSITION":3,"TEXCOORD_0":4},"indices":5,"material":0}]},{"primitives":[{"attributes":{"POSITION":6,"TEXCOORD_0":7},"indices":8,"material":0}]},{"primitives":[{"attributes":{"POSITION":9,"TEXCOORD_0":10},"indices":11,"material":0}]},{"primitives":[{"attributes":{"POSITION":12,"TEXCOORD_0":13},"indices":14,"material":0}]},{"primitives":[{"attributes":{"POSITION":15,"TEXCOORD_0":16},"indices":17,"material":0}]},{"primitives":[{"attributes":{"POSITION":18,"TEXCOORD_0":19},"indices":20,"material":0}]},{"primitives":[{"attributes":{"POSITION":21,"TEXCOORD_0":22},"indices":23,"material":0}]},{"primitives":[{"attributes":{"POSITION":24,"TEXCOORD_0":25},"indices":26,"material":0}]},{"primitives":[{"attributes":{"POSITION":27,"TEXCOORD_0":28},"indices":29,"material":0}]},{"primitives":[{"attributes":{"POSITION":30,"TEXCOORD_0":31},"indices":32,"material":0}]},{"primitives":[{"attributes":{"POSITION":33,"TEXCOORD_0":34},"indices":35,"material":0}]},{"primitives":[{"attributes":{"POSITION":36,"TEXCOORD_0":37},"indices":38,"material":0}]}],
  "materials": [{
    "pbrMetallicRoughness": {
      "baseColorTexture": { "index": 0 },
      "metallicFactor": 0.0,
      "roughnessFactor": 1.0
    }
  }],
  "textures": [{ "source": 0 }],
  "images": [{ "uri": "bee.png" }],
  "accessors": [{"bufferView":0,"byteOffset":0,"componentType":5126,"count":36,"type":"VEC3","min":[-0.5,-0.5,-1.5],"max":[1,0.75,0.5]},{"bufferView":1,"byteOffset":0,"componentType":5126,"count":36,"type":"VEC2"},{"bufferView":2,"byteOffset":0,"componentType":5123,"count":36,"type":"SCALAR"},{"bufferView":3,"byteOffset":0,"componentType":5126,"count":18,"type":"VEC3","min":[0,-0.25,-2.25],"max":[0.5,0.25,-1.5]},{"bufferView":4,"byteOffset":0,"componentType":5126,"count":18,"type":"VEC2"},{"bufferView":5,"byteOffset":0,"componentType":5123,"count":18,"type":"SCALAR"},{"bufferView":6,"byteOffset":0,"componentType":5126,"count":48,"type":"VEC3","min":[-0.316835,0.887623,-1.12492],"max":[0.151095,1.74982,-0.150916]},{"bufferView":7,"byteOffset":0,"componentType":5126,"count":48,"type":"VEC2"},{"bufferView":8,"byteOffset":0,"componentType":5123,"count":48,"type":"SCALAR"},{"bufferView":9,"byteOffset":0,"componentType":5126,"count":48,"type":"VEC3","min":[-0.957036,0.793035,-0.75],"max":[0.176635,1.85348,0.75]},{"bufferView":10,"byteOffset":0,"componentType":5126,"count":48,"type":"VEC2"},{"bufferView":11,"byteOffset":0,"componentType":5123,"count":48,"type":"SCALAR"},{"bufferView":12,"byteOffset":0,"componentType":5126,"count":48,"type":"VEC3","min":[0.323365,0.793035,-0.75],"max":[1.45704,1.85348,0.75]},{"bufferView":13,"byteOffset":0,"componentType":5126,"count":48,"type":"VEC2"},{"bufferView":14,"byteOffset":0,"componentType":5123,"count":48,"type":"SCALAR"},{"bufferView":15,"byteOffset":0,"componentType":5126,"count":48,"type":"VEC3","min":[0.348905,0.887623,-1.12492],"max":[0.816835,1.74982,-0.150916]},{"bufferView":16,"byteOffset":0,"componentType":5126,"count":48,"type":"VEC2"},{"bufferView":17,"byteOffset":0,"componentType":5123,"count":48,"type":"SCALAR"},{"bufferView":18,"byteOffset":0,"componentType":5126,"count":36,"type":"VEC3","min":[-0.5,-0.5,0.5],"max":[1,0.75,1.25]},{"bufferView":19,"byteOffset":0,"componentType":5126,"count":36,"type":"VEC2"},{"bufferView":20,"byteOffset":0,"componentType":5123,"count":36,"type":"SCALAR"},{"bufferView":21,"byteOffset":0,"componentType":5126,"count":36,"type":"VEC3","min":[0.5,0.75,1.25],"max":[0.75,1,1.5]},{"bufferView":22,"byteOffset":0,"componentType":5126,"count":36,"type":"VEC2"},{"bufferView":23,"byteOffset":0,"componentType":5123,"count":36,"type":"SCALAR"},{"bufferView":24,"byteOffset":0,"componentType":5126,"count":36,"type":"VEC3","min":[-0.25,-0.75,-0],"max":[0,-0.5,0.25]},{"bufferView":25,"byteOffset":0,"componentType":5126,"count":36,"type":"VEC2"},{"bufferView":26,"byteOffset":0,"componentType":5123,"count":36,"type":"SCALAR"},{"bufferView":27,"byteOffset":0,"componentType":5126,"count":36,"type":"VEC3","min":[-0.25,-0.75,-0.75],"max":[0,-0.5,-0.5]},{"bufferView":28,"byteOffset":0,"componentType":5126,"count":36,"type":"VEC2"},{"bufferView":29,"byteOffset":0,"componentType":5123,"count":36,"type":"SCALAR"},{"bufferView":30,"byteOffset":0,"componentType":5126,"count":36,"type":"VEC3","min":[0.5,-0.75,-0],"max":[0.75,-0.5,0.25]},{"bufferView":31,"byteOffset":0,"componentType":5126,"count":36,"type":"VEC2"},{"bufferView":32,"byteOffset":0,"componentType":5123,"count":36,"type":"SCALAR"},{"bufferView":33,"byteOffset":0,"componentType":5126,"count":36,"type":"VEC3","min":[0.5,-0.75,-0.75],"max":[0.75,-0.5,-0.5]},{"bufferView":34,"byteOffset":0,"componentType":5126,"count":36,"type":"VEC2"},{"bufferView":35,"byteOffset":0,"componentType":5123,"count":36,"type":"SCALAR"},{"bufferView":36,"byteOffset":0,"componentType":5126,"count":36,"type":"VEC3","min":[-0.25,0.75,1.25],"max":[0,1,1.5]},{"bufferView":37,"byteOffset":0,"componentType":5126,"count":36,"type":"VEC2"},{"bufferView":38,"byteOffset":0,"componentType":5123,"count":36,"type":"SCALAR"}],
  "bufferViews": [{"buffer":0,"byteOffset":0,"byteLength":432,"target":34962},{"buffer":0,"byteOffset":432,"byteLength":288,"target":34962},{"buffer":0,"byteOffset":720,"byteLength":72,"target":34963},{"buffer":0,"byteOffset":792,"byteLength":216,"target":34962},{"buffer":0,"byteOffset":1008,"byteLength":144,"target":34962},{"buffer":0,"byteOffset":1152,"byteLength":36,"target":34963},{"buffer":0,"byteOffset":1188,"byteLength":576,"target":34962},{"buffer":0,"byteOffset":1764,"byteLength":384,"target":34962},{"buffer":0,"byteOffset":2148,"byteLength":96,"target":34963},{"buffer":0,"byteOffset":2244,"byteLength":576,"target":34962},{"buffer":0,"byteOffset":2820,"byteLength":384,"target":34962},{"buffer":0,"byteOffset":3204,"byteLength":96,"target":34963},{"buffer":0,"byteOffset":3300,"byteLength":576,"target":34962},{"buffer":0,"byteOffset":3876,"byteLength":384,"target":34962},{"buffer":0,"byteOffset":4260,"byteLength":96,"target":34963},{"buffer":0,"byteOffset":4356,"byteLength":576,"target":34962},{"buffer":0,"byteOffset":4932,"byteLength":384,"target":34962},{"buffer":0,"byteOffset":5316,"byteLength":96,"target":34963},{"buffer":0,"byteOffset":5412,"byteLength":432,"target":34962},{"buffer":0,"byteOffset":5844,"byteLength":288,"target":34962},{"buffer":0,"byteOffset":6132,"byteLength":72,"target":34963},{"buffer":0,"byteOffset":6204,"byteLength":432,"target":34962},{"buffer":0,"byteOffset":6636,"byteLength":288,"target":34962},{"buffer":0,"byteOffset":6924,"byteLength":72,"target":34963},{"buffer":0,"byteOffset":6996,"byteLength":432,"target":34962},{"buffer":0,"byteOffset":7428,"byteLength":288,"target":34962},{"buffer":0,"byteOffset":7716,"byteLength":72,"target":34963},{"buffer":0,"byteOffset":7788,"byteLength":432,"target":34962},{"buffer":0,"byteOffset":8220,"byteLength":288,"target":34962},{"buffer":0,"byteOffset":8508,"byteLength":72,"target":34963},{"buffer":0,"byteOffset":8580,"byteLength":432,"target":34962},{"buffer":0,"byteOffset":9012,"byteLength":288,"target":34962},{"buffer":0,"byteOffset":9300,"byteLength":72,"target":34963},{"buffer":0,"byteOffset":9372,"byteLength":432,"target":34962},{"buffer":0,"byteOffset":9804,"byteLength":288,"target":34962},{"buffer":0,"byteOffset":10092,"byteLength":72,"target":34963},{"buffer":0,"byteOffset":10164,"byteLength":432,"target":34962},{"buffer":0,"byteOffset":10596,"byteLength":288,"target":34962},{"buffer":0,"byteOffset":10884,"byteLength":72,"target":34963}],
  "buffers": [{ "uri": "bee.bin", "byteLength": 10956 }]
}