{
  "asset": { "version": "2.0" },
  "scene": 0,
  "scenes": [{ "nodes": [0,1,2] }],
  "nodes": [{"mesh":0},{"mesh":1},{"mesh":2}],
  "meshes": [{"primitives":[{"attributes":{"POSITION":0,"TEXCOORD_0":1},"indices":2,"material":0}]},{"primitives":[{"attributes":{"POSITION":3,"TEXCOORD_0":4},"indices":5,"material":0}]},{"primitives":[{"attributes":{"POSITION":6,"TEXCOORD_0":7},"indices":8,"material":0}]}],
  "materials": [{
    "pbrMetallicRoughness": {
      "baseColorTexture": { "index": 0 },
      "metallicFactor": 0.0,
      "roughnessFactor": 1.0
    }
  }],
  "textures": [{ "source": 0 }],
  "images": [{ "uri": "carvao.png" }],
  "accessors": [{"bufferView":0,"byteOffset":0,"componentType":5126,"count":60,"type":"VEC3","min":[-0.75,-0.5,-1],"max":[0.75,1,1]},{"bufferView":1,"byteOffset":0,"componentType":5126,"count":60,"type":"VEC2"},{"bufferView":2,"byteOffset":0,"componentType":5123,"count":60,"type":"SCALAR"},{"bufferView":3,"byteOffset":0,"componentType":5126,"count":60,"type":"VEC3","min":[-0.75,-0.433013,-2.86603],"max":[0.75,2.36603,-0.383975]},{"bufferView":4,"byteOffset":0,"componentType":5126,"count":60,"type":"VEC2"},{"bufferView":5,"byteOffset":0,"componentType":5123,"count":60,"type":"SCALAR"},{"bufferView":6,"byteOffset":0,"componentType":5126,"count":60,"type":"VEC3","min":[-2,-0.5,-1.5],"max":[-0.5,3.25,-0]},{"bufferView":7,"byteOffset":0,"componentType":5126,"count":60,"type":"VEC2"},{"bufferView":8,"byteOffset":0,"componentType":5123,"count":60,"type":"SCALAR"}],
  "bufferViews": [{"buffer":0,"byteOffset":0,"byteLength":720,"target":34962},{"buffer":0,"byteOffset":720,"byteLength":480,"target":34962},{"buffer":0,"byteOffset":1200,"byteLength":120,"target":34963},{"buffer":0,"byteOffset":1320,"byteLength":720,"target":34962},{"buffer":0,"byteOffset":2040,"byteLength":480,"target":34962},{"buffer":0,"byteOffset":2520,"byteLength":120,"target":34963},{"buffer":0,"byteOffset":2640,"byteLength":720,"target":34962},{"buffer":0,"byteOffset":3360,"byteLength":480,"target":34962},{"buffer":0,"byteOffset":3840,"byteLength":120,"target":34963}],
  "buffers": [{ "uri": "carvao.bin", "byteLength": 3960 }]
}