{
  "asset": { "version": "2.0" },
  "scene": 0,
  "scenes": [{ "nodes": [0,1,2,3,4,5,6,7] }],
  "nodes": [{"mesh":0},{"mesh":1},{"mesh":2},{"mesh":3},{"mesh":4},{"mesh":5},{"mesh":6},{"mesh":7}],
  "meshes": [{"primitives":[{"attributes":{"POSITION":0,"TEXCOORD_0":1},"indices":2,"material":0}]},{"primitives":[{"attributes":{"POSITION":3,"TEXCOORD_0":4},"indices":5,"material":0}]},{"primitives":[{"attributes":{"POSITION":6,"TEXCOORD_0":7},"indices":8,"material":0}]},{"primitives":[{"attributes":{"POSITION":9,"TEXCOORD_0":10},"indices":11,"material":0}]},{"primitives":[{"attributes":{"POSITION":12,"TEXCOORD_0":13},"indices":14,"material":0}]},{"primitives":[{"attributes":{"POSITION":15,"TEXCOORD_0":16},"indices":17,"material":0}]},{"primitives":[{"attributes":{"POSITION":18,"TEXCOORD_0":19},"indices":20,"material":0}]},{"primitives":[{"attributes":{"POSITION":21,"TEXCOORD_0":22},"indices":23,"material":0}]}],
  "materials": [{
    "pbrMetallicRoughness": {
      "baseColorTexture": { "index": 0 },
      "metallicFactor": 0.0,
      "roughnessFactor": 1.0
    }
  }],
  "textures": [{ "source": 0 }],
  "images": [{ "uri": "faisca.png" }],
  "accessors": [{"bufferView":0,"byteOffset":0,"componentType":5126,"count":60,"type":"VEC3","min":[-1.5,-2.96202,-1.34928],"max":[1.5,-0.537981,1.34928]},{"bufferView":1,"byteOffset":0,"componentType":5126,"count":60,"type":"VEC2"},{"bufferView":2,"byteOffset":0,"componentType":5123,"count":60,"type":"SCALAR"},{"bufferView":3,"byteOffset":0,"componentType":5126,"count":60,"type":"VEC3","min":[-1,-2.75,-0.5],"max":[1,-2,0.5]},{"bufferView":4,"byteOffset":0,"componentType":5126,"count":60,"type":"VEC2"},{"bufferView":5,"byteOffset":0,"componentType":5123,"count":60,"type":"SCALAR"},{"bufferView":6,"byteOffset":0,"componentType":5126,"count":60,"type":"VEC3","min":[0.45,-3.95,-1.05],"max":[1.05,-3.05,1.05]},{"bufferView":7,"byteOffset":0,"componentType":5126,"count":60,"type":"VEC2"},{"bufferView":8,"byteOffset":0,"componentType":5123,"count":60,"type":"SCALAR"},{"bufferView":9,"byteOffset":0,"componentType":5126,"count":60,"type":"VEC3","min":[-0.8,-3.95,-1.05],"max":[-0.2,-3.05,1.05]},{"bufferView":10,"byteOffset":0,"componentType":5126,"count":60,"type":"VEC2"},{"bufferView":11,"byteOffset":0,"componentType":5123,"count":60,"type":"SCALAR"},{"bufferView":12,"byteOffset":0,"componentType":5126,"count":60,"type":"VEC3","min":[-0.5,-2.25,-3],"max":[0.5,-1.25,-0.5]},{"bufferView":13,"byteOffset":0,"componentType":5126,"count":60,"type":"VEC2"},{"bufferView":14,"byteOffset":0,"componentType":5123,"count":60,"type":"SCALAR"},{"bufferView":15,"byteOffset":0,"componentType":5126,"count":18,"type":"VEC3","min":[-0.5,-0.862372,0.387628],"max":[0.5,1.23296,1.37941]},{"bufferView":16,"byteOffset":0,"componentType":5126,"count":18,"type":"VEC2"},{"bufferView":17,"byteOffset":0,"componentType":5123,"count":18,"type":"SCALAR"},{"bufferView":18,"byteOffset":0,"componentType":5126,"count":18,"type":"VEC3","min":[-0.5,-0.5,-1.20263],"max":[0.5,2.03915,0.25]},{"bufferView":19,"byteOffset":0,"componentType":5126,"count":18,"type":"VEC2"},{"bufferView":20,"byteOffset":0,"componentType":5123,"count":18,"type":"SCALAR"},{"bufferView":21,"byteOffset":0,"componentType":5126,"count":18,"type":"VEC3","min":[-0.5,-1.70711,1.29289],"max":[0.5,-0.871928,3.19506]},{"bufferView":22,"byteOffset":0,"componentType":5126,"count":18,"type":"VEC2"},{"bufferView":23,"byteOffset":0,"componentType":5123,"count":18,"type":"SCALAR"}],
  "bufferViews": [{"buffer":0,"byteOffset":0,"byteLength":720,"target":34962},{"buffer":0,"byteOffset":720,"byteLength":480,"target":34962},{"buffer":0,"byteOffset":1200,"byteLength":120,"target":34963},{"buffer":0,"byteOffset":1320,"byteLength":720,"target":34962},{"buffer":0,"byteOffset":2040,"byteLength":480,"target":34962},{"buffer":0,"byteOffset":2520,"byteLength":120,"target":34963},{"buffer":0,"byteOffset":2640,"byteLength":720,"target":34962},{"buffer":0,"byteOffset":3360,"byteLength":480,"target":34962},{"buffer":0,"byteOffset":3840,"byteLength":120,"target":34963},{"buffer":0,"byteOffset":3960,"byteLength":720,"target":34962},{"buffer":0,"byteOffset":4680,"byteLength":480,"target":34962},{"buffer":0,"byteOffset":5160,"byteLength":120,"target":34963},{"buffer":0,"byteOffset":5280,"byteLength":720,"target":34962},{"buffer":0,"byteOffset":6000,"byteLength":480,"target":34962},{"buffer":0,"byteOffset":6480,"byteLength":120,"target":34963},{"buffer":0,"byteOffset":6600,"byteLength":216,"target":34962},{"buffer":0,"byteOffset":6816,"byteLength":144,"target":34962},{"buffer":0,"byteOffset":6960,"byteLength":36,"target":34963},{"buffer":0,"byteOffset":6996,"byteLength":216,"target":34962},{"buffer":0,"byteOffset":7212,"byteLength":144,"target":34962},{"buffer":0,"byteOffset":7356,"byteLength":36,"target":34963},{"buffer":0,"byteOffset":7392,"byteLength":216,"target":34962},{"buffer":0,"byteOffset":7608,"byteLength":144,"target":34962},{"buffer":0,"byteOffset":7752,"byteLength":36,"target":34963}],
  "buffers": [{ "uri": "faisca.bin", "byteLength": 7788 }]
}